<?xml version="1.0" standalone="no"?><!DOCTYPE svg PUBLIC "-//W3C//DTD SVG 1.1//EN" "http://www.w3.org/Graphics/SVG/1.1/DTD/svg11.dtd"><svg t="1726040910112" class="icon" viewBox="0 0 1024 1024" version="1.1" xmlns="http://www.w3.org/2000/svg" p-id="9617" xmlns:xlink="http://www.w3.org/1999/xlink" width="300" height="300"><path d="M893.2352 914.0224l-569.99936 61.7472L130.7648 790.528l569.99936-61.72672z" fill="#EFF6FE" p-id="9618"></path><path d="M0 601.51808l0.04096-52.34688c0 1.4336 0.7168 2.90816 2.21184 4.34176l-0.04096 52.34688c-1.49504-1.4336-2.21184-2.88768-2.21184-4.34176" fill="#EAF4FE" p-id="9619"></path><path d="M995.49184 766.7712l0.04096-52.34688a104.0384 104.0384 0 0 0 7.53664-1.08544l-0.04096 52.34688a100.84352 100.84352 0 0 1-7.53664 1.08544" fill="#EAF4FE" p-id="9620"></path><path d="M1003.02848 765.66528l0.04096-52.34688c1.88416-0.34816 3.64544-0.73728 5.30432-1.16736l-0.04096 52.34688c-1.6384 0.43008-3.42016 0.8192-5.30432 1.16736M1008.35328 764.49792l0.04096-52.34688c1.20832-0.3072 2.3552-0.65536 3.44064-1.00352l-0.04096 52.34688a58.0608 58.0608 0 0 1-3.44064 1.00352M1011.79392 763.4944l0.04096-52.34688a43.008 43.008 0 0 0 2.47808-0.88064l-0.04096 52.34688a43.008 43.008 0 0 1-2.47808 0.88064M1014.29248 762.61376l0.04096-52.34688a33.9968 33.9968 0 0 0 1.92512-0.8192l-0.04096 52.34688c-0.6144 0.28672-1.26976 0.55296-1.92512 0.8192" fill="#EAF4FE" p-id="9621"></path><path d="M1016.2176 761.79456l0.04096-52.34688c0.55296-0.24576 1.06496-0.512 1.55648-0.75776l-0.04096 52.34688-1.55648 0.75776" fill="#EAF4FE" p-id="9622"></path><path d="M1017.77408 761.0368l0.04096-52.34688 1.31072-0.73728-0.04096 52.34688-1.31072 0.73728" fill="#EAF4FE" p-id="9623"></path><path d="M1019.0848 760.27904l0.04096-52.34688 1.1264-0.73728-0.04096 52.34688-1.1264 0.73728M1020.2112 759.54176l0.04096-52.34688a12.5952 12.5952 0 0 0 0.94208-0.73728l-0.04096 52.34688a18.90304 18.90304 0 0 1-0.94208 0.73728" fill="#EAF4FE" p-id="9624"></path><path d="M1021.15328 758.80448l0.04096-52.34688a14.17216 14.17216 0 0 0 0.79872-0.73728l-0.04096 52.34688a6.81984 6.81984 0 0 1-0.79872 0.73728" fill="#EAF4FE" p-id="9625"></path><path d="M1021.952 758.0672l0.04096-52.34688a11.0592 11.0592 0 0 0 0.67584-0.73728l-0.04096 52.34688a11.0592 11.0592 0 0 1-0.67584 0.73728" fill="#EAF4FE" p-id="9626"></path><path d="M1022.62784 757.32992l0.04096-52.34688a5.69344 5.69344 0 0 0 0.53248-0.75776l-0.04096 52.34688a17.05984 17.05984 0 0 1-0.53248 0.75776" fill="#EAF4FE" p-id="9627"></path><path d="M1023.16032 756.57216l0.04096-52.34688a7.3728 7.3728 0 0 0 0.4096-0.79872l-0.04096 52.34688c-0.12288 0.26624-0.24576 0.53248-0.4096 0.79872" fill="#EAF4FE" p-id="9628"></path><path d="M1023.56992 755.77344l0.04096-52.34688a4.23936 4.23936 0 0 0 0.26624-0.8192l-0.04096 52.34688a6.3488 6.3488 0 0 1-0.26624 0.8192" fill="#EAF4FE" p-id="9629"></path><path d="M1023.83616 754.95424l0.04096-52.34688a6.51264 6.51264 0 0 0 0.12288-0.88064l-0.04096 52.34688a6.51264 6.51264 0 0 1-0.12288 0.88064" fill="#EAF4FE" p-id="9630"></path><path d="M1023.95904 754.0736L1024 701.72672v-0.12288l-0.04096 52.34688v0.12288" fill="#EAF4FE" p-id="9631"></path><path d="M2.21184 605.88032l0.04096-52.34688L239.616 781.98784l-0.04096 52.3264z" fill="#CBE4FE" p-id="9632"></path><path d="M292.57728 842.89536l0.04096-52.3264 702.93504-76.14464-0.06144 52.34688z" fill="#EAF4FE" p-id="9633"></path><path d="M239.57504 834.31424l0.04096-52.34688c1.86368 1.80224 4.75136 3.3792 8.3968 4.7104l-0.04096 52.34688a24.2688 24.2688 0 0 1-8.3968-4.7104M247.97184 839.02464l0.04096-52.34688c0.94208 0.34816 1.9456 0.67584 2.99008 0.98304l-0.04096 52.34688a56.85248 56.85248 0 0 1-2.99008-0.98304" fill="#EAF4FE" p-id="9634"></path><path d="M250.96192 840.00768l0.04096-52.34688c0.83968 0.24576 1.72032 0.49152 2.64192 0.7168l-0.04096 52.34688a49.70496 49.70496 0 0 1-2.64192-0.7168M253.60384 840.72448l0.04096-52.34688 2.4576 0.57344-0.04096 52.34688a43.15136 43.15136 0 0 1-2.4576-0.57344M256.06144 841.29792l0.04096-52.34688 2.3552 0.47104-0.04096 52.34688a36.82304 36.82304 0 0 1-2.3552-0.47104" fill="#EAF4FE" p-id="9635"></path><path d="M258.39616 841.78944l0.04096-52.34688 2.29376 0.4096-0.04096 52.34688-2.29376-0.4096" fill="#EAF4FE" p-id="9636"></path><path d="M260.68992 842.17856l0.04096-52.34688 2.2528 0.32768-0.04096 52.34688a85.23776 85.23776 0 0 1-2.2528-0.32768M262.94272 842.50624l0.04096-52.34688 2.2528 0.28672-0.04096 52.34688a75.0592 75.0592 0 0 1-2.2528-0.28672M265.19552 842.79296l0.04096-52.34688 2.2528 0.24576-0.04096 52.34688a39.87456 39.87456 0 0 1-2.2528-0.24576M267.44832 843.03872l0.04096-52.34688 2.27328 0.2048-0.04096 52.34688a85.13536 85.13536 0 0 1-2.27328-0.2048M269.7216 843.24352l0.04096-52.34688 2.27328 0.14336-0.04096 52.34688a84.62336 84.62336 0 0 1-2.27328-0.14336M271.99488 843.38688l0.04096-52.34688 2.27328 0.1024-0.04096 52.34688a84.3776 84.3776 0 0 1-2.27328-0.1024M274.26816 843.50976l0.04096-52.34688c0.75776 0.02048 1.49504 0.06144 2.2528 0.06144l-0.04096 52.34688-2.2528-0.06144M276.52096 843.5712l0.04096-52.34688 2.2528 0.02048-0.04096 52.34688-2.2528-0.02048M278.77376 843.61216l0.04096-52.34688h2.29376l-0.04096 52.34688h-2.29376" fill="#EAF4FE" p-id="9637"></path><path d="M281.06752 843.59168l0.04096-52.34688 2.41664-0.06144-0.04096 52.34688-2.41664 0.06144" fill="#EAF4FE" p-id="9638"></path><path d="M283.46368 843.53024l0.04096-52.34688c0.88064-0.02048 1.78176-0.06144 2.6624-0.12288l-0.04096 52.34688a56.56576 56.56576 0 0 1-2.6624 0.12288M286.14656 843.42784l0.04096-52.34688c1.3312-0.06144 2.6624-0.16384 3.97312-0.28672l-0.04096 52.34688c-1.31072 0.12288-2.64192 0.2048-3.97312 0.28672" fill="#EAF4FE" p-id="9639"></path><path d="M290.11968 843.14112l0.04096-52.34688 2.4576-0.24576-0.04096 52.34688-2.4576 0.24576" fill="#EAF4FE" p-id="9640"></path><path d="M995.55328 714.42432l-702.91456 76.14464c-21.89312 2.37568-45.60896-1.47456-53.00224-8.58112L2.2528 553.53344c-7.39328-7.10656 4.34176-14.80704 26.23488-17.16224l702.91456-76.14464c21.87264-2.37568 45.60896 1.47456 53.00224 8.58112l237.3632 228.4544c7.41376 7.10656-4.36224 14.78656-26.2144 17.16224z" fill="#DFEEFE" p-id="9641"></path><path d="M854.13888 657.53088l-510.64832 46.10048-172.4416-138.3424 510.6688-46.10048z" fill="#7DBEFE" p-id="9642"></path><path d="M778.58816 313.5488l-71.31136-47.0016c3.6864-0.4096 7.20896-0.02048 10.4448 1.06496l71.31136 47.0016c-3.23584-1.06496-6.73792-1.45408-10.4448-1.06496" fill="#A2D0FF" p-id="9643"></path><path d="M789.03296 314.61376l-71.31136-47.0016c1.65888 0.55296 3.25632 1.29024 4.75136 2.19136l71.31136 47.0016a23.79776 23.79776 0 0 0-4.75136-2.19136" fill="#A2D0FF" p-id="9644"></path><path d="M793.78432 316.80512l-71.31136-47.0016 0.9216 0.57344 71.31136 47.0016a22.58944 22.58944 0 0 0-0.9216-0.57344" fill="#A2D0FF" p-id="9645"></path><path d="M700.25216 437.06368l-71.31136-47.0016a20.02944 20.02944 0 0 0 6.38976-1.82272l71.31136 47.0016a20.02944 20.02944 0 0 1-6.38976 1.82272" fill="#80BFFF" p-id="9646"></path><path d="M706.6624 435.26144l-71.31136-47.0016c1.24928-0.57344 2.43712-1.26976 3.584-2.06848l71.31136 47.0016a24.22784 24.22784 0 0 1-3.584 2.06848M710.2464 433.17248l-71.31136-47.0016c0.94208-0.65536 1.8432-1.37216 2.70336-2.17088l71.31136 47.0016a24.59648 24.59648 0 0 1-2.70336 2.17088" fill="#80BFFF" p-id="9647"></path><path d="M712.94976 431.02208l-71.31136-47.0016c0.79872-0.73728 1.57696-1.51552 2.29376-2.3552l71.31136 47.0016a31.232 31.232 0 0 1-2.29376 2.3552" fill="#80BFFF" p-id="9648"></path><path d="M715.24352 428.66688l-71.31136-47.0016c0.7168-0.83968 1.41312-1.72032 2.048-2.64192l71.31136 47.0016a37.74464 37.74464 0 0 1-2.048 2.64192" fill="#80BFFF" p-id="9649"></path><path d="M717.27104 426.02496l-71.31136-47.0016c0.67584-0.98304 1.31072-2.00704 1.88416-3.072l71.31136 47.0016a33.30048 33.30048 0 0 1-1.88416 3.072" fill="#80BFFF" p-id="9650"></path><path d="M719.1552 422.95296l-71.31136-47.0016c0.67584-1.26976 1.26976-2.58048 1.78176-3.93216l71.31136 47.0016a32.48128 32.48128 0 0 1-1.78176 3.93216" fill="#80BFFF" p-id="9651"></path><path d="M720.93696 419.0208l-71.31136-47.0016a31.744 31.744 0 0 0 2.02752-10.05568l71.31136 47.0016a31.9488 31.9488 0 0 1-2.02752 10.05568" fill="#80BFFF" p-id="9652"></path><path d="M748.15488 316.90752l-71.31136-47.0016 30.45376-3.33824 71.29088 46.98112z" fill="#A2D0FF" p-id="9653"></path><path d="M722.98496 408.96512l-71.31136-47.0016 2.43712-63.95904 71.31136 47.0016z" fill="#80BFFF" p-id="9654"></path><path d="M725.42208 345.00608l-71.31136-47.0016c0.14336-3.4816 0.86016-6.88128 2.02752-10.0352l71.31136 47.0016c-1.16736 3.15392-1.88416 6.5536-2.02752 10.0352" fill="#A2D0FF" p-id="9655"></path><path d="M727.47008 334.99136l-71.31136-47.0016a32.768 32.768 0 0 1 1.78176-3.95264l71.31136 47.0016a32.768 32.768 0 0 0-1.78176 3.95264" fill="#A2D0FF" p-id="9656"></path><path d="M729.25184 331.03872l-71.31136-47.0016c0.57344-1.06496 1.20832-2.08896 1.88416-3.072l71.31136 47.0016a29.36832 29.36832 0 0 0-1.88416 3.072M731.136 327.96672l-71.31136-47.0016c0.63488-0.9216 1.3312-1.80224 2.048-2.64192l71.31136 47.0016c-0.73728 0.8192-1.41312 1.72032-2.048 2.64192" fill="#A2D0FF" p-id="9657"></path><path d="M733.184 325.3248l-71.31136-47.0016c0.73728-0.83968 1.49504-1.6384 2.29376-2.3552l71.31136 47.0016a24.9856 24.9856 0 0 0-2.29376 2.3552M735.47776 322.94912l-71.31136-47.0016c0.86016-0.77824 1.76128-1.51552 2.70336-2.17088l71.31136 47.0016c-0.94208 0.65536-1.8432 1.39264-2.70336 2.17088" fill="#A2D0FF" p-id="9658"></path><path d="M738.18112 320.77824l-71.31136-47.0016c1.14688-0.79872 2.3552-1.49504 3.584-2.06848l71.31136 47.0016c-1.2288 0.57344-2.43712 1.26976-3.584 2.06848M741.76512 318.70976l-71.31136-47.0016c2.02752-0.94208 4.17792-1.55648 6.36928-1.80224l71.31136 47.0016a20.1728 20.1728 0 0 0-6.36928 1.80224" fill="#A2D0FF" p-id="9659"></path><path d="M373.32992 472.96512l-71.31136-47.0016 326.92224-35.90144 71.31136 47.0016z" fill="#80BFFF" p-id="9660"></path><path d="M361.8816 470.26176l-71.31136-47.0016 0.65536 0.4096 71.31136 47.0016-0.65536-0.4096M362.53696 470.67136l-71.31136-47.0016a17.14176 17.14176 0 0 0 3.35872 1.536l71.31136 47.0016a17.14176 17.14176 0 0 1-3.35872-1.536" fill="#80BFFF" p-id="9661"></path><path d="M365.89568 472.20736l-71.31136-47.0016c2.29376 0.75776 4.79232 1.04448 7.43424 0.75776l71.31136 47.0016a17.55136 17.55136 0 0 1-7.43424-0.75776" fill="#80BFFF" p-id="9662"></path><path d="M269.43488 649.17504l-71.31136-47.0016c-8.35584-5.50912-13.63968-16.24064-13.14816-29.10208l71.31136 47.0016c-0.49152 12.88192 4.79232 23.59296 13.14816 29.10208" fill="#80BFFF" p-id="9663"></path><path d="M334.29504 362.33216l-71.31136-47.0016a17.28512 17.28512 0 0 1 7.45472 0.75776l71.31136 47.0016a17.6128 17.6128 0 0 0-7.45472-0.75776M341.74976 363.08992l-71.31136-47.0016a16.60928 16.60928 0 0 1 3.35872 1.536l71.31136 47.0016a17.8176 17.8176 0 0 0-3.35872-1.536" fill="#A2D0FF" p-id="9664"></path><path d="M345.10848 364.6464l-71.31136-47.0016a6.71744 6.71744 0 0 1 0.63488 0.4096l71.31136 47.0016a4.1984 4.1984 0 0 0-0.63488-0.4096" fill="#A2D0FF" p-id="9665"></path><path d="M296.5504 366.4896L225.23904 319.488l37.74464-4.13696 71.31136 46.98112z" fill="#A2D0FF" p-id="9666"></path><path d="M256.28672 620.07296l-71.31136-47.0016 8.192-213.9136 71.31136 46.98112z" fill="#80BFFF" p-id="9667"></path><path d="M778.58816 313.5488c16.87552-1.8432 30.04416 13.0048 29.26592 32.93184l-8.192 213.9136c-0.75776 19.98848-15.17568 37.80608-32.0512 39.66976l-482.05824 52.92032c-16.87552 1.8432-30.04416-12.94336-29.26592-32.93184l8.192-213.9136c0.75776-19.92704 15.17568-37.80608 32.0512-39.66976l37.74464-4.13696c12.02176-1.31072 21.2992 9.15456 20.74624 23.32672l-2.4576 63.95904c-0.55296 14.19264 8.76544 24.65792 20.74624 23.32672l326.92224-35.90144c12.02176-1.31072 22.17984-13.9264 22.71232-28.11904l2.4576-63.95904c0.55296-14.19264 10.73152-26.78784 22.71232-28.11904l30.47424-3.29728z" fill="#4CA7FF" p-id="9668"></path><path d="M264.47872 406.13888l-71.31136-47.0016c0.18432-4.89472 1.18784-9.64608 2.8672-14.09024l71.31136 47.0016c-1.65888 4.44416-2.68288 9.216-2.8672 14.09024" fill="#A2D0FF" p-id="9669"></path><path d="M267.34592 392.06912l-71.31136-47.0016c0.7168-1.92512 1.57696-3.7888 2.51904-5.59104l71.31136 47.0016a45.71136 45.71136 0 0 0-2.51904 5.59104" fill="#A2D0FF" p-id="9670"></path><path d="M269.86496 386.47808l-71.31136-47.0016c0.8192-1.51552 1.69984-2.9696 2.6624-4.36224l71.31136 47.0016c-0.96256 1.39264-1.8432 2.84672-2.6624 4.36224" fill="#A2D0FF" p-id="9671"></path><path d="M272.52736 382.11584l-71.31136-47.0016c0.90112-1.31072 1.88416-2.56 2.90816-3.74784l71.31136 47.0016c-1.024 1.18784-1.98656 2.43712-2.90816 3.74784M275.43552 378.368L204.14464 331.3664c1.024-1.18784 2.12992-2.31424 3.25632-3.35872l71.31136 47.0016a46.16192 46.16192 0 0 0-3.2768 3.35872" fill="#A2D0FF" p-id="9672"></path><path d="M278.71232 375.02976l-71.31136-47.0016a38.7072 38.7072 0 0 1 3.82976-3.072l71.31136 47.0016a33.9968 33.9968 0 0 0-3.82976 3.072" fill="#A2D0FF" p-id="9673"></path><path d="M282.5216 371.95776l-71.31136-47.0016c1.61792-1.1264 3.31776-2.10944 5.05856-2.92864l71.31136 47.0016a32.3584 32.3584 0 0 0-5.05856 2.92864M287.60064 369.02912l-71.31136-47.0016a28.672 28.672 0 0 1 8.94976-2.53952l71.31136 47.0016a28.13952 28.13952 0 0 0-8.94976 2.53952" fill="#A2D0FF" p-id="9674"></path><path d="M693.49376 48.35328c12.86144-1.45408 22.79424 10.38336 22.05696 26.37824l-13.55776 293.39648c-0.73728 15.93344-11.85792 30.16704-24.71936 31.6416l-305.72544 34.73408c-12.86144 1.45408-18.1248-10.58816-17.38752-26.5216l8.88832-293.19168c0.73728-15.99488 11.85792-30.22848 24.73984-31.68256l305.70496-34.75456z" fill="#A2D0FF" p-id="9675"></path><path d="M444.7232 187.51488c-8.06912 0-15.03232-6.98368-15.89248-16.40448-0.94208-10.07616 5.4272-19.10784 14.2336-20.1728l195.2768-23.81824c8.704-1.06496 16.67072 6.22592 17.6128 16.2816 0.94208 10.07616-5.4272 19.10784-14.2336 20.1728L446.44352 187.392a12.14464 12.14464 0 0 1-1.72032 0.12288z" fill="#FFFFFF" p-id="9676"></path><path d="M469.27872 295.13728c-8.06912 0-15.03232-6.98368-15.89248-16.40448-0.94208-10.07616 5.4272-19.10784 14.2336-20.1728l145.22368-17.7152c8.76544-1.04448 16.67072 6.22592 17.6128 16.2816 0.94208 10.07616-5.4272 19.10784-14.2336 20.1728l-145.22368 17.7152a12.5952 12.5952 0 0 1-1.72032 0.12288z" fill="#FFFFFF" p-id="9677"></path></svg>