<?xml version="1.0" standalone="no"?><!DOCTYPE svg PUBLIC "-//W3C//DTD SVG 1.1//EN" "http://www.w3.org/Graphics/SVG/1.1/DTD/svg11.dtd"><svg t="1721807596127" class="icon" viewBox="0 0 1024 1024" version="1.1" xmlns="http://www.w3.org/2000/svg" p-id="7003" xmlns:xlink="http://www.w3.org/1999/xlink" width="260" height="260"><path d="M0 710.41024V62.40256C0 51.2 9.60512 41.5744 20.80768 41.5744h982.38464c11.20256 0 20.80768 9.60512 20.80768 20.80768v647.9872H0z" fill="#000000" p-id="7004"></path><path d="M1024 710.41024v83.18976c0 11.20256-9.60512 20.80768-20.80768 20.80768H20.80768A21.17632 21.17632 0 0 1 0 793.6v-83.21024h1024z" fill="#CFDCE5" p-id="7005"></path><path d="M657.6128 961.59744H366.3872l20.80768-147.18976h249.61024l20.7872 147.18976z" fill="#AAC1CE" p-id="7006"></path><path d="M982.40512 83.21024H41.5744v585.58464H982.4256V83.21024z" fill="#FFFFFF" p-id="7007"></path><path d="M636.80512 814.40768H387.19488l-11.61216 82.14528 264.94976-55.7056-3.72736-26.43968z" fill="#8BA0AE" p-id="7008"></path><path d="M299.45856 301.01504a118.92736 118.92736 0 0 1 116.3264 116.3264H471.04c-1.29024-94.04416-77.53728-170.2912-171.58144-171.58144v55.25504z" fill="#FFD07D" p-id="7009"></path><path d="M415.744 422.21568a118.92736 118.92736 0 0 1-118.784 116.38784 118.10816 118.10816 0 0 1-66.62144-20.50048L195.87072 561.3568a173.09696 173.09696 0 0 0 101.10976 32.50176c95.17056 0 172.70784-76.77952 174.01856-171.66336H415.744z" fill="#E04F5F" p-id="7010"></path><path d="M191.95904 558.51008l34.4064-43.2128A118.76352 118.76352 0 0 1 178.176 419.75808c0-64.7168 52.0192-117.4528 116.38784-118.76352V245.76C199.68 247.07072 122.88 324.608 122.88 419.77856a173.9776 173.9776 0 0 0 69.07904 138.73152z" fill="#25B6D2" p-id="7011"></path><path d="M479.21152 163.84H122.88v40.96h356.33152V163.84z" fill="#AAC1CE" p-id="7012"></path><path d="M593.92 430.08h-40.96v102.4h40.96v-102.4z" fill="#E04F5F" p-id="7013"></path><path d="M672.9728 286.72h-40.96v249.2416h40.96V286.72zM757.76 163.84h-40.96v368.64h40.96V163.84z" fill="#25B6D2" p-id="7014"></path><path d="M831.0784 389.12h-40.96v144.65024h40.96V389.12z" fill="#E04F5F" p-id="7015"></path><path d="M910.15168 389.12h-40.96v144.65024h40.96V389.12z" fill="#25B6D2" p-id="7016"></path><path d="M921.4976 572.53888H552.96v20.48h368.5376v-20.48z" fill="#AAC1CE" p-id="7017"></path><path d="M327.68 389.12h-61.44v20.48h61.44v-20.48z" fill="#E04F5F" p-id="7018"></path><path d="M368.64 429.83424h-143.36v20.48h143.36v-20.48z" fill="#AAC1CE" p-id="7019"></path><path d="M731.19744 960H292.80256v24.00256h438.39488v-24.00256z" fill="#CFDCE5" p-id="7020"></path></svg>
