<?xml version="1.0" standalone="no"?><!DOCTYPE svg PUBLIC "-//W3C//DTD SVG 1.1//EN" "http://www.w3.org/Graphics/SVG/1.1/DTD/svg11.dtd"><svg t="1721964504201" class="icon" viewBox="0 0 1187 1024" version="1.1" xmlns="http://www.w3.org/2000/svg" p-id="30465" xmlns:xlink="http://www.w3.org/1999/xlink" width="301.38671875" height="260"><path d="M23.52254 694.900299l546.561342 315.144943c13.954758 8.140275 32.561101 8.140275 46.515858 0l546.561342-315.144943c22.095033-12.791861 30.235308-41.864273 17.443447-63.959306-4.651586-6.977379-10.466068-12.791861-17.443447-17.443447l-546.561342-313.982047c-13.954758-8.140275-32.561101-8.140275-46.515858 0l-546.561342 313.982047C1.427507 626.289407-6.712768 654.198922 6.079093 677.456852c4.651586 8.140275 10.466068 13.954758 17.443447 17.443447z" fill="#F0F4FE" p-id="30466"></path><path d="M1055.01171 755.370915l-95.357511 54.656134-373.289767-213.97295 100.009097-53.493238zM358.436724 656.524715l-116.289647 67.447996-59.30772-32.561102 117.452543-68.610891zM822.432416 755.370915l-290.724118 167.457092-290.724118-167.457092 290.724118-167.457092z" fill="#D3DAEA" p-id="30467"></path><path d="M801.500279 31.177138c5.814482-3.488689 15.117654 3.488689 22.095033 13.954758 5.814482 10.466068 6.977379 22.095033 1.162897 25.583722-5.814482 3.488689-15.117654-3.488689-20.932137-13.954758-8.140275-10.466068-8.140275-22.095033-2.325793-25.583722m130.244405 106.986475l-81.402753-54.656134c1.162896-12.791861-3.488689-30.235308-12.791861-46.515859-15.117654-26.746619-39.53848-43.027169-52.330341-34.886894-9.303172 5.814482-11.628965 22.095033-5.814483 41.864273l-60.470616-27.909515c-8.140275-4.651586-17.443447 1.162896-17.443447 10.466068v61.633513l237.23088 129.081508v-67.447995c-1.162896-5.814482-3.488689-9.303172-6.977379-11.628965" fill="#7E8B9B" p-id="30468"></path><path d="M635.206084 46.294792l-1.162897 552.375824c0 5.814482 3.488689 11.628965 9.303172 15.117654l313.982047 181.411849c11.628965 6.977379 25.583722-1.162896 25.583723-15.117654v-559.353202c0-8.140275-4.651586-15.117654-11.628965-19.76924l-302.353082-174.434471c-13.954758-9.303172-33.723998 2.325793-33.723998 19.76924" fill="#E5564F" p-id="30469"></path><path d="M948.025235 219.566366l-275.606464-159.316816 1.162896 538.421066 274.443568 158.15392z" fill="#F2F5F9" p-id="30470"></path><path d="M791.034211 35.828724c5.814482-3.488689 15.117654 3.488689 22.095033 13.954758 5.814482 11.628965 6.977379 22.095033 1.162896 25.583722-5.814482 3.488689-15.117654-3.488689-22.095033-13.954758-6.977379-11.628965-6.977379-22.095033-1.162896-25.583722m130.244405 106.986475l-81.402753-54.656134c1.162896-12.791861-3.488689-30.235308-12.791861-46.515859-15.117654-26.746619-39.53848-43.027169-52.330342-34.886894-10.466068 5.814482-12.791861 22.095033-6.977378 40.701377l-60.470617-27.909516c-8.140275-4.651586-17.443447 1.162896-17.443447 10.466069v61.633513l237.23088 129.081508v-68.610892c0-3.488689-2.325793-8.140275-5.814482-9.303172" fill="#A5B2C4" p-id="30471"></path><path d="M335.178794 296.317533l-4.651585 12.791862s-39.53848 3.488689-40.701377 3.488689l-31.398205-8.140275-5.814482-20.932137-6.977379-17.443447c16.280551-6.977379 39.53848-3.488689 51.167445 3.48869 9.303172 5.814482 38.375584 26.746619 38.375583 26.746618" fill="#EEF7FF" p-id="30472"></path><path d="M110.739776 575.412686s-45.352962-17.443447-54.656134-23.257929c-2.325793-1.162896-4.651586-3.488689-6.977379-5.814482-17.443447-16.280551-29.072412-44.190066-29.072412-82.56565 0-82.565649 50.004548-176.760264 111.638061-212.810054 22.095033-12.791861 44.190066-18.606344 60.470617-10.466068 10.466068 4.651586 60.470616 34.886894 60.470616 34.886894" fill="#EEF7FF" p-id="30473"></path><path d="M109.576879 577.738479l2.325793-5.814482s-45.352962-17.443447-54.656134-23.257929c-2.325793-1.162896-4.651586-2.325793-6.977379-4.651586-17.443447-16.280551-26.746619-45.352962-26.746619-81.402753 0-81.402753 48.841652-175.597367 109.312269-210.484261 16.280551-9.303172 39.53848-18.606344 58.144823-10.466069 9.303172 4.651586 59.30772 33.723998 60.470617 34.886894l-2.325793-10.466068c-2.325793-1.162896-45.352962-24.420826-55.819031-29.072412-16.280551-6.977379-38.375584-3.488689-63.959306 11.628965-62.796409 36.049791-112.800958 132.570198-112.800958 215.135847 0 38.375584 10.466068 68.610892 30.235309 84.891443 2.325793 2.325793 4.651586 4.651586 6.977379 5.814482 9.303172 5.814482 53.493238 23.257929 55.81903 23.257929" fill="#EEF7FF" p-id="30474"></path><path d="M175.861978 271.896708c45.352962-26.746619 84.891442-12.791861 102.334889 30.235308 2.325793-1.162896 4.651586-3.488689 6.977379-4.651586 43.027169-24.420826 77.914064 1.162896 77.914064 59.30772 0 56.981927-34.886894 124.429922-77.914064 148.850748-18.606344 10.466068-87.217235 50.004548-109.312268 62.79641-61.633513 36.049791-111.638061-2.325793-111.638061-83.728546s50.004548-177.92316 111.638061-212.810054" fill="#8BB8E9" p-id="30475"></path><path d="M520.079333 410.281388v403.525075l-175.597367-101.171993-2.325793-404.687972z" fill="#DEE9FB" p-id="30476"></path><path d="M696.839597 778.919569l-176.760264 102.334889v-67.447995l176.760264-102.33489z" fill="#75726D" p-id="30477"></path><path d="M520.079333 880.091562v-66.285099l-174.43447-101.171993v66.285099z" fill="#999590" p-id="30478"></path><path d="M696.839597 711.471573l-2.325793-401.199282-174.434471 100.009097v403.525075z" fill="#A6B9DC" p-id="30479"></path><path d="M694.513804 310.272291l-174.434471-169.782885v269.791982z" fill="#EAD3B2" p-id="30480"></path><path d="M342.156173 307.946498l177.92316-167.457092v269.791982z" fill="#EFE0C7" p-id="30481"></path><path d="M563.106503 183.516576l-43.02717-43.02717v67.447996z" fill="#75726D" p-id="30482"></path><path d="M520.079333 207.937402v-67.447996l-44.190066 41.864273c23.257929 15.117654 44.190066 26.746619 44.190066 25.583723z" fill="#999590" p-id="30483"></path></svg>
