<?xml version="1.0" standalone="no"?><!DOCTYPE svg PUBLIC "-//W3C//DTD SVG 1.1//EN" "http://www.w3.org/Graphics/SVG/1.1/DTD/svg11.dtd"><svg t="1726030085943" class="icon" viewBox="0 0 1024 1024" version="1.1" xmlns="http://www.w3.org/2000/svg" p-id="16396" xmlns:xlink="http://www.w3.org/1999/xlink" width="300" height="300"><path d="M890.7776 920.10496l-566.31296 57.344-191.24224-172.05248 566.31296-57.36448z" fill="#EFF6FE" p-id="16397"></path><path d="M3.29728 629.82144l0.04096-48.61952c0 1.3312 0.69632 2.70336 2.19136 4.03456L5.48864 633.856c-1.47456-1.3312-2.19136-2.70336-2.19136-4.03456" fill="#CBE4FE" p-id="16398"></path><path d="M992.37888 783.29856l0.04096-48.61952a103.8336 103.8336 0 0 0 7.49568-1.024l-0.04096 48.61952a92.2624 92.2624 0 0 1-7.49568 1.024M999.87456 782.29504l0.04096-48.61952c1.86368-0.32768 3.62496-0.69632 5.28384-1.08544l-0.04096 48.61952a95.60064 95.60064 0 0 1-5.28384 1.08544" fill="#EAF4FE" p-id="16399"></path><path d="M1005.13792 781.2096l0.04096-48.61952a54.0672 54.0672 0 0 0 3.42016-0.94208l-0.04096 48.61952a72.4992 72.4992 0 0 1-3.42016 0.94208M1008.57856 780.26752l0.04096-48.61952c0.86016-0.26624 1.67936-0.53248 2.47808-0.8192l-0.04096 48.61952a58.61376 58.61376 0 0 1-2.47808 0.8192" fill="#EAF4FE" p-id="16400"></path><path d="M1011.03616 779.44832l0.04096-48.61952c0.67584-0.24576 1.31072-0.49152 1.90464-0.75776l-0.04096 48.61952c-0.59392 0.26624-1.2288 0.512-1.90464 0.75776M1012.96128 778.69056l0.04096-48.61952c0.55296-0.22528 1.06496-0.47104 1.55648-0.7168l-0.04096 48.61952-1.55648 0.7168" fill="#EAF4FE" p-id="16401"></path><path d="M1014.51776 777.97376l0.04096-48.61952c0.45056-0.22528 0.90112-0.45056 1.31072-0.69632l-0.06144 48.61952a19.12832 19.12832 0 0 1-1.29024 0.69632" fill="#EAF4FE" p-id="16402"></path><path d="M1015.808 777.27744l0.04096-48.61952a26.2144 26.2144 0 0 0 1.10592-0.67584l-0.04096 48.61952a13.1072 13.1072 0 0 1-1.10592 0.67584M1016.9344 776.6016l0.04096-48.61952 0.94208-0.67584-0.04096 48.61952-0.94208 0.67584" fill="#EAF4FE" p-id="16403"></path><path d="M1017.87648 775.92576l0.04096-48.61952a13.78304 13.78304 0 0 0 0.79872-0.67584l-0.04096 48.61952a13.78304 13.78304 0 0 1-0.79872 0.67584" fill="#EAF4FE" p-id="16404"></path><path d="M1018.6752 775.22944l0.04096-48.61952a5.20192 5.20192 0 0 0 0.65536-0.69632l-0.04096 48.61952-0.65536 0.69632" fill="#EAF4FE" p-id="16405"></path><path d="M1019.33056 774.53312l0.04096-48.61952a4.32128 4.32128 0 0 0 0.53248-0.7168l-0.04096 48.61952c-0.16384 0.24576-0.32768 0.49152-0.53248 0.7168M1019.86304 773.8368l0.04096-48.61952c0.16384-0.24576 0.28672-0.49152 0.4096-0.73728l-0.04096 48.61952c-0.12288 0.24576-0.24576 0.49152-0.4096 0.73728" fill="#EAF4FE" p-id="16406"></path><path d="M1020.27264 773.09952l0.04096-48.61952a3.72736 3.72736 0 0 0 0.26624-0.75776l-0.04096 48.61952a5.57056 5.57056 0 0 1-0.26624 0.75776M1020.53888 772.34176l0.04096-48.61952a5.65248 5.65248 0 0 0 0.12288-0.8192l-0.04096 48.61952a6.10304 6.10304 0 0 1-0.12288 0.8192" fill="#EAF4FE" p-id="16407"></path><path d="M1020.64128 771.52256l0.06144-48.61952v-0.12288l-0.04096 48.61952-0.02048 0.12288" fill="#EAF4FE" p-id="16408"></path><path d="M5.48864 633.856l0.06144-48.61952 235.8272 212.21376-0.04096 48.59904z" fill="#CBE4FE" p-id="16409"></path><path d="M293.9904 854.03648l0.04096-48.61952 698.40896-70.73792-0.06144 48.61952z" fill="#EAF4FE" p-id="16410"></path><path d="M241.33632 846.04928l0.04096-48.61952c1.8432 1.65888 4.73088 3.13344 8.35584 4.36224l-0.04096 48.61952a23.79776 23.79776 0 0 1-8.35584-4.36224M249.69216 850.432l0.04096-48.61952c0.94208 0.32768 1.92512 0.63488 2.9696 0.9216l-0.04096 48.61952a46.3872 46.3872 0 0 1-2.9696-0.9216M252.66176 851.3536l0.04096-48.61952 2.62144 0.67584-0.04096 48.61952a119.3984 119.3984 0 0 1-2.62144-0.67584" fill="#EAF4FE" p-id="16411"></path><path d="M255.26272 852.00896l0.04096-48.61952 2.43712 0.53248-0.04096 48.61952a85.0944 85.0944 0 0 1-2.43712-0.53248M257.69984 852.54144l0.04096-48.61952c0.75776 0.16384 1.536 0.3072 2.33472 0.43008l-0.04096 48.61952a39.38304 39.38304 0 0 1-2.33472-0.43008M260.03456 852.992l0.04096-48.61952 2.27328 0.36864-0.04096 48.61952-2.27328-0.36864M262.30784 853.36064l0.04096-48.61952c0.73728 0.1024 1.47456 0.22528 2.23232 0.3072l-0.04096 48.61952-2.23232-0.3072M264.56064 853.66784l0.04096-48.61952 2.23232 0.26624-0.04096 48.61952a74.01472 74.01472 0 0 1-2.23232-0.26624M266.79296 853.93408l0.04096-48.61952 2.2528 0.22528-0.04096 48.61952a69.85728 69.85728 0 0 1-2.2528-0.22528" fill="#EAF4FE" p-id="16412"></path><path d="M269.02528 854.15936l0.04096-48.61952 2.2528 0.18432-0.04096 48.61952a1019.6992 1019.6992 0 0 0-2.2528-0.18432M271.29856 854.34368l0.04096-48.61952 2.2528 0.14336-0.04096 48.61952-2.2528-0.14336M273.55136 854.48704l0.04096-48.61952 2.2528 0.1024-0.04096 48.61952a79.2576 79.2576 0 0 1-2.2528-0.1024" fill="#EAF4FE" p-id="16413"></path><path d="M275.78368 854.58944l0.04096-48.61952 2.2528 0.06144-0.04096 48.61952-2.2528-0.06144M278.03648 854.65088l0.04096-48.61952 2.23232 0.02048-0.04096 48.61952-2.23232-0.02048M280.2688 854.69184l0.04096-48.61952h2.27328l-0.04096 48.61952h-2.27328" fill="#EAF4FE" p-id="16414"></path><path d="M282.54208 854.67136l0.04096-48.61952 2.39616-0.06144-0.04096 48.61952a46.77632 46.77632 0 0 1-2.39616 0.06144M284.93824 854.6304l0.04096-48.61952 2.6624-0.1024-0.04096 48.61952-2.6624 0.1024" fill="#EAF4FE" p-id="16415"></path><path d="M287.60064 854.50752l0.04096-48.61952c1.31072-0.06144 2.64192-0.14336 3.95264-0.26624l-0.04096 48.61952c-1.31072 0.12288-2.64192 0.2048-3.95264 0.26624M291.55328 854.26176l0.04096-48.61952 2.43712-0.22528-0.04096 48.61952-2.43712 0.22528" fill="#EAF4FE" p-id="16416"></path><path d="M992.44032 734.67904l-698.38848 70.71744c-21.74976 2.21184-45.32224-1.37216-52.65408-7.96672L5.55008 585.23648c-7.33184-6.59456 4.32128-13.74208 26.07104-15.95392l698.38848-70.71744c21.72928-2.19136 45.32224 1.37216 52.65408 7.96672l235.84768 212.19328c7.33184 6.61504-4.36224 13.76256-26.07104 15.95392z" fill="#DFEEFE" p-id="16417"></path><path d="M787.2512 678.85056l-422.95296 42.82368-142.80704-128.49152 422.95296-42.84416z" fill="#7DBEFE" p-id="16418"></path><path d="M699.8016 84.29568l-56.0128-30.47424a55.0912 55.0912 0 0 1 21.4016 1.08544l56.0128 30.47424a54.66112 54.66112 0 0 0-21.4016-1.08544" fill="#A2D0FF" p-id="16419"></path><path d="M721.2032 85.38112L665.1904 54.90688c3.42016 0.88064 6.69696 2.08896 9.78944 3.62496l56.0128 30.47424a50.01216 50.01216 0 0 0-9.78944-3.62496" fill="#A2D0FF" p-id="16420"></path><path d="M730.99264 89.00608l-56.0128-30.47424c0.63488 0.3072 1.26976 0.63488 1.88416 0.98304l56.0128 30.47424a27.2384 27.2384 0 0 0-1.88416-0.98304" fill="#A2D0FF" p-id="16421"></path><path d="M557.62944 344.8832l-56.0128-30.47424c-17.32608-9.4208-28.81536-28.672-28.7744-52.46976l56.0128 30.47424c-0.04096 23.79776 11.44832 43.04896 28.7744 52.46976" fill="#A2D0FF" p-id="16422"></path><path d="M591.36 99.5328L535.3472 69.05856l108.4416-15.23712 56.0128 30.47424z" fill="#A2D0FF" p-id="16423"></path><path d="M528.85504 292.41344l-56.0128-30.47424 0.2048-117.20704 56.03328 30.47424z" fill="#A2D0FF" p-id="16424"></path><path d="M529.08032 175.2064l-56.0128-30.47424c0.02048-9.03168 1.69984-17.87904 4.75136-26.17344l56.0128 30.47424a75.83744 75.83744 0 0 0-4.75136 26.17344M533.83168 149.01248L477.7984 118.53824c1.3312-3.60448 2.90816-7.10656 4.7104-10.46528l56.0128 30.47424a81.18272 81.18272 0 0 0-4.68992 10.46528" fill="#A2D0FF" p-id="16425"></path><path d="M538.54208 138.56768L482.5088 108.09344c1.536-2.84672 3.23584-5.59104 5.07904-8.23296l56.0128 30.47424c-1.8432 2.64192-3.54304 5.38624-5.05856 8.23296" fill="#A2D0FF" p-id="16426"></path><path d="M543.60064 130.33472l-56.0128-30.47424c1.7408-2.47808 3.62496-4.87424 5.61152-7.12704l56.0128 30.47424a85.8112 85.8112 0 0 0-5.61152 7.12704" fill="#A2D0FF" p-id="16427"></path><path d="M549.21216 123.20768l-56.0128-30.47424c2.00704-2.27328 4.13696-4.42368 6.36928-6.43072l56.0128 30.47424a78.66368 78.66368 0 0 0-6.36928 6.43072" fill="#A2D0FF" p-id="16428"></path><path d="M555.58144 116.77696l-56.0128-30.47424c2.39616-2.1504 4.9152-4.15744 7.53664-5.95968l56.0128 30.47424a77.6192 77.6192 0 0 0-7.53664 5.95968M563.11808 110.81728l-56.0128-30.47424a70.0416 70.0416 0 0 1 10.11712-5.8368l56.0128 30.47424a72.33536 72.33536 0 0 0-10.11712 5.8368" fill="#A2D0FF" p-id="16429"></path><path d="M573.2352 104.98048l-56.0128-30.47424c5.7344-2.70336 11.83744-4.56704 18.1248-5.44768l56.0128 30.47424a63.03744 63.03744 0 0 0-18.1248 5.44768" fill="#A2D0FF" p-id="16430"></path><path d="M699.8016 84.29568c34.28352-4.8128 61.952 21.38112 61.89056 58.22464l-0.22528 117.22752c-0.06144 37.00736-27.8528 70.81984-62.13632 75.65312l-108.4416 15.23712c-34.28352 4.8128-62.11584-21.17632-62.0544-58.18368l0.22528-117.22752c0.06144-36.82304 28.01664-70.8608 62.30016-75.6736l108.4416-15.2576z" fill="#4CA7FF" p-id="16431"></path><path d="M699.8016 397.98784l-56.0128-30.47424a55.0912 55.0912 0 0 1 21.48352 1.08544l56.0128 30.47424a55.88992 55.88992 0 0 0-21.48352-1.08544" fill="#A2D0FF" p-id="16432"></path><path d="M721.28512 399.09376l-56.0128-30.47424c3.42016 0.88064 6.69696 2.08896 9.78944 3.62496l56.0128 30.47424a50.01216 50.01216 0 0 0-9.78944-3.62496" fill="#A2D0FF" p-id="16433"></path><path d="M731.07456 402.71872l-56.0128-30.47424c0.63488 0.3072 1.26976 0.63488 1.88416 0.98304l56.0128 30.47424a32.89088 32.89088 0 0 0-1.88416-0.98304" fill="#A2D0FF" p-id="16434"></path><path d="M557.62944 658.432l-56.0128-30.47424c-17.32608-9.4208-28.81536-28.672-28.7744-52.46976l56.0128 30.47424c-0.04096 23.77728 11.44832 43.02848 28.7744 52.46976" fill="#A2D0FF" p-id="16435"></path><path d="M591.36 413.24544L535.3472 382.7712l108.4416-15.2576 56.0128 30.47424z" fill="#A2D0FF" p-id="16436"></path><path d="M528.85504 605.94176l-56.0128-30.47424 0.2048-117.0432 56.03328 30.47424z" fill="#A2D0FF" p-id="16437"></path><path d="M529.08032 488.89856l-56.0128-30.47424c0.02048-9.07264 1.72032-17.96096 4.77184-26.27584l56.0128 30.47424c-3.072 8.31488-4.77184 17.2032-4.77184 26.27584" fill="#A2D0FF" p-id="16438"></path><path d="M533.83168 462.62272l-56.0128-30.47424c1.31072-3.584 2.88768-7.08608 4.68992-10.42432l56.0128 30.47424a82.20672 82.20672 0 0 0-4.68992 10.42432M538.5216 452.1984l-56.0128-30.47424c1.51552-2.82624 3.21536-5.57056 5.05856-8.192l56.0128 30.47424c-1.8432 2.62144-3.52256 5.36576-5.05856 8.192" fill="#A2D0FF" p-id="16439"></path><path d="M543.58016 444.0064l-56.0128-30.47424c1.7408-2.47808 3.60448-4.85376 5.59104-7.08608l56.0128 30.47424a78.7456 78.7456 0 0 0-5.59104 7.08608" fill="#A2D0FF" p-id="16440"></path><path d="M549.1712 436.92032l-56.0128-30.47424c2.00704-2.27328 4.11648-4.4032 6.3488-6.41024l56.0128 30.47424a78.17216 78.17216 0 0 0-6.3488 6.41024" fill="#A2D0FF" p-id="16441"></path><path d="M555.52 430.51008l-56.0128-30.47424c2.39616-2.1504 4.89472-4.13696 7.51616-5.95968l56.0128 30.47424a74.97728 74.97728 0 0 0-7.51616 5.95968" fill="#A2D0FF" p-id="16442"></path><path d="M563.03616 424.5504l-56.0128-30.47424c3.21536-2.23232 6.61504-4.17792 10.11712-5.8368l56.0128 30.47424a71.168 71.168 0 0 0-10.11712 5.8368" fill="#A2D0FF" p-id="16443"></path><path d="M573.15328 418.7136l-56.0128-30.47424c5.75488-2.70336 11.8784-4.58752 18.20672-5.46816l56.0128 30.47424a63.5904 63.5904 0 0 0-18.20672 5.46816" fill="#A2D0FF" p-id="16444"></path><path d="M699.8016 397.98784c34.28352-4.8128 61.952 21.21728 61.89056 58.22464l-0.22528 117.0432c-0.06144 37.00736-27.8528 70.81984-62.13632 75.65312l-108.4416 15.23712c-34.28352 4.8128-62.11584-21.17632-62.0544-58.18368l0.22528-117.0432c0.06144-37.00736 28.01664-70.8608 62.30016-75.6736l108.4416-15.2576z" fill="#4CA7FF" p-id="16445"></path><path d="M417.95584 433.7664l-56.0128-30.47424a55.0912 55.0912 0 0 1 21.4016 1.08544l56.0128 30.47424a55.0912 55.0912 0 0 0-21.4016-1.08544" fill="#A2D0FF" p-id="16446"></path><path d="M439.35744 434.87232l-56.0128-30.47424c3.42016 0.88064 6.69696 2.08896 9.78944 3.62496l56.0128 30.47424a50.50368 50.50368 0 0 0-9.78944-3.62496M449.14688 438.4768l-56.0128-30.47424c0.63488 0.3072 1.26976 0.63488 1.88416 0.98304l56.0128 30.47424a158.9248 158.9248 0 0 0-1.88416-0.98304" fill="#A2D0FF" p-id="16447"></path><path d="M275.88608 694.39488l-56.0128-30.47424c-17.32608-9.4208-28.7744-28.69248-28.73344-52.5312l56.0128 30.47424c-0.04096 23.83872 11.42784 43.1104 28.73344 52.5312" fill="#A2D0FF" p-id="16448"></path><path d="M309.51424 449.00352l-56.0128-30.47424 108.4416-15.23712 56.0128 30.47424z" fill="#A2D0FF" p-id="16449"></path><path d="M247.15264 641.88416l-56.0128-30.47424 0.22528-117.22752 56.0128 30.47424z" fill="#A2D0FF" p-id="16450"></path><path d="M247.37792 524.65664L191.36512 494.1824c0.02048-9.07264 1.72032-17.96096 4.77184-26.29632l56.0128 30.47424a77.04576 77.04576 0 0 0-4.77184 26.29632" fill="#A2D0FF" p-id="16451"></path><path d="M252.14976 498.36032l-56.0128-30.47424c1.3312-3.60448 2.90816-7.08608 4.7104-10.4448l56.0128 30.47424a82.59584 82.59584 0 0 0-4.7104 10.4448" fill="#A2D0FF" p-id="16452"></path><path d="M256.86016 487.91552l-56.0128-30.47424c1.536-2.84672 3.21536-5.59104 5.05856-8.21248l56.0128 30.47424c-1.8432 2.62144-3.54304 5.36576-5.05856 8.21248M261.91872 479.70304l-56.0128-30.47424c1.7408-2.47808 3.60448-4.85376 5.59104-7.10656l56.0128 30.47424c-1.98656 2.2528-3.85024 4.62848-5.59104 7.10656" fill="#A2D0FF" p-id="16453"></path><path d="M267.50976 472.59648l-56.0128-30.47424a84.992 84.992 0 0 1 6.32832-6.41024l56.0128 30.47424a81.32608 81.32608 0 0 0-6.32832 6.41024M273.85856 466.18624l-56.0128-30.47424a73.9328 73.9328 0 0 1 7.49568-5.9392l56.0128 30.47424c-2.60096 1.82272-5.12 3.80928-7.49568 5.9392M281.35424 460.24704l-56.0128-30.47424c3.19488-2.21184 6.57408-4.15744 10.05568-5.79584l56.0128 30.47424c-3.4816 1.6384-6.84032 3.584-10.05568 5.79584M291.4304 454.4512l-56.0128-30.47424a64.1024 64.1024 0 0 1 18.08384-5.44768l56.0128 30.47424a63.22176 63.22176 0 0 0-18.08384 5.44768" fill="#A2D0FF" p-id="16454"></path><path d="M417.95584 433.7664c34.28352-4.8128 61.952 21.38112 61.89056 58.22464l-0.22528 117.22752c-0.06144 37.00736-27.8528 70.81984-62.13632 75.65312l-108.4416 15.23712c-34.28352 4.8128-61.952-21.21728-61.89056-58.22464l0.22528-117.22752c0.06144-36.82304 27.8528-70.81984 62.13632-75.65312l108.4416-15.23712z" fill="#4CA7FF" p-id="16455"></path><path d="M455.90528 363.33568l-56.0128-30.47424a11.20256 11.20256 0 0 1-2.56-1.86368l56.0128 30.47424a12.1856 12.1856 0 0 0 2.56 1.86368" fill="#DCB8FF" p-id="16456"></path><path d="M453.34528 361.49248l-56.0128-30.47424-34.22208-32.19456 56.0128 30.47424z" fill="#DCB8FF" p-id="16457"></path><path d="M313.09824 321.37216l-56.0128-30.47424c0.75776 0.4096 1.536 0.8192 2.33472 1.20832l56.0128 30.47424a62.23872 62.23872 0 0 1-2.33472-1.20832" fill="#DCB8FF" p-id="16458"></path><path d="M315.43296 322.58048l-56.0128-30.47424c3.87072 1.90464 7.94624 3.42016 12.14464 4.5056l56.0128 30.47424a64.45056 64.45056 0 0 1-12.14464-4.5056" fill="#DCB8FF" p-id="16459"></path><path d="M327.5776 327.08608l-56.0128-30.47424c8.45824 2.19136 17.5104 2.70336 26.76736 1.41312a78.25408 78.25408 0 0 0 22.60992-6.81984l56.0128 30.47424a78.4384 78.4384 0 0 1-22.60992 6.81984 68.66944 68.66944 0 0 1-26.76736-1.41312M376.95488 321.65888l-56.0128-30.47424c4.3008-2.02752 8.47872-4.44416 12.4928-7.20896l56.0128 30.47424a86.56896 86.56896 0 0 1-12.4928 7.20896M389.46816 314.44992l-56.0128-30.47424c3.23584-2.2528 6.38976-4.73088 9.37984-7.43424l56.0128 30.47424c-3.01056 2.70336-6.144 5.18144-9.37984 7.43424M398.848 307.01568l-56.0128-30.47424c2.78528-2.49856 5.44768-5.20192 7.9872-8.06912l56.0128 30.47424c-2.56 2.8672-5.2224 5.57056-7.9872 8.06912" fill="#DCB8FF" p-id="16460"></path><path d="M406.81472 298.94656l-56.0128-30.47424c0.79872-0.90112 1.59744-1.8432 2.37568-2.78528l56.0128 30.47424a80.56832 80.56832 0 0 1-2.37568 2.78528" fill="#DCB8FF" p-id="16461"></path><path d="M409.1904 296.18176l-56.0128-30.47424c1.6384-1.98656 3.19488-4.03456 4.64896-6.12352l56.0128 30.47424a109.48608 109.48608 0 0 1-4.64896 6.12352" fill="#DCB8FF" p-id="16462"></path><path d="M413.83936 290.05824l-56.0128-30.47424c2.31424-3.29728 4.4032-6.69696 6.26688-10.17856l56.0128 30.47424c-1.86368 3.4816-3.95264 6.88128-6.26688 10.17856" fill="#DCB8FF" p-id="16463"></path><path d="M420.10624 279.87968l-56.0128-30.47424c2.27328-4.21888 4.1984-8.56064 5.81632-12.94336l56.0128 30.47424a98.304 98.304 0 0 1-5.81632 12.94336M425.94304 266.91584l-56.0128-30.47424c11.75552-32.01024 6.2464-67.60448-16.52736-89.02656a64.75776 64.75776 0 0 0-13.49632-9.78944l56.0128 30.47424c4.83328 2.64192 9.35936 5.91872 13.49632 9.78944 22.77376 21.42208 28.2624 57.0368 16.52736 89.02656" fill="#DCB8FF" p-id="16464"></path><path d="M296.32512 351.98976L240.31232 321.536a91.25888 91.25888 0 0 1-18.75968-13.59872c-32.01024-30.12608-39.79264-79.68768-23.3472-124.47744l56.0128 30.47424c-16.44544 44.78976-8.68352 94.37184 23.3472 124.47744 5.79584 5.4272 12.10368 9.97376 18.75968 13.57824M254.23872 213.9136L198.22592 183.43936c2.27328-6.16448 4.99712-12.24704 8.17152-18.18624l56.0128 30.47424a139.6736 139.6736 0 0 0-8.17152 18.18624M262.41024 195.72736l-56.0128-30.47424c2.64192-4.9152 5.59104-9.70752 8.86784-14.37696l56.0128 30.47424c-3.2768 4.66944-6.22592 9.46176-8.86784 14.37696" fill="#DCB8FF" p-id="16465"></path><path d="M271.27808 181.3504l-56.0128-30.47424a145.48992 145.48992 0 0 1 9.91232-12.57472l56.0128 30.47424a149.25824 149.25824 0 0 0-9.91232 12.57472M281.1904 168.77568l-56.0128-30.47424c3.54304-4.01408 7.22944-7.74144 11.07968-11.18208l56.0128 30.47424a132.9152 132.9152 0 0 0-11.07968 11.18208" fill="#DCB8FF" p-id="16466"></path><path d="M292.2496 157.5936l-56.0128-30.47424c4.1984-3.7888 8.56064-7.22944 13.06624-10.3424l56.0128 30.47424c-4.48512 3.11296-8.84736 6.5536-13.06624 10.3424M305.31584 147.2512l-56.0128-30.47424c5.65248-3.91168 11.50976-7.29088 17.48992-10.09664l56.0128 30.47424a121.40544 121.40544 0 0 0-17.48992 10.09664M322.80576 137.15456l-56.0128-30.47424a111.0016 111.0016 0 0 1 31.90784-9.6256 96.4608 96.4608 0 0 1 37.5808 1.98656l56.0128 30.47424a96.0512 96.0512 0 0 0-37.5808-1.98656 110.57152 110.57152 0 0 0-31.90784 9.6256M392.2944 129.49504L336.2816 99.0208c5.87776 1.51552 11.61216 3.64544 17.14176 6.3488l56.0128 30.47424a90.78784 90.78784 0 0 0-17.14176-6.3488" fill="#DCB8FF" p-id="16467"></path><path d="M409.43616 135.86432l-56.0128-30.47424c1.10592 0.53248 2.19136 1.10592 3.2768 1.69984l56.0128 30.47424a71.02464 71.02464 0 0 0-3.2768-1.69984" fill="#DCB8FF" p-id="16468"></path><path d="M475.21792 334.68416c6.06208 5.69344 6.0416 16.32256-0.04096 23.73632a17.83808 17.83808 0 0 1-10.97728 6.32832 12.96384 12.96384 0 0 1-10.83392-3.25632l-34.22208-32.19456c-19.23072 18.28864-42.04544 29.45024-64.83968 32.6656-27.89376 3.91168-55.6032-3.6864-76.71808-23.552-42.41408-39.89504-42.27072-113.90976 0.3072-165.74464 21.1968-25.82528 48.9472-41.22624 76.84096-45.13792 27.72992-3.8912 55.41888 3.70688 76.71808 23.552 38.48192 36.37248 41.63584 101.25312 9.728 151.57248l34.03776 32.03072z m-66.02752-38.5024c30.24896-36.82304 30.33088-89.94816 0.22528-118.272-14.58176-13.70112-34.07872-19.82464-54.74304-16.91648-20.66432 2.90816-40.20224 14.49984-54.84544 32.31744-30.4128 36.84352-30.5152 89.96864-0.22528 118.272 14.58176 13.70112 34.07872 19.82464 54.74304 16.91648 20.66432-2.90816 40.20224-14.52032 54.84544-32.31744" fill="#B45FFF" p-id="16469"></path></svg>