<?xml version="1.0" standalone="no"?><!DOCTYPE svg PUBLIC "-//W3C//DTD SVG 1.1//EN" "http://www.w3.org/Graphics/SVG/1.1/DTD/svg11.dtd"><svg t="1722094046606" class="icon" viewBox="0 0 1024 1024" version="1.1" xmlns="http://www.w3.org/2000/svg" p-id="1397" xmlns:xlink="http://www.w3.org/1999/xlink" width="300" height="300"><path d="M901.665502 926.035315a48.738649 48.738649 0 0 1-48.738649 48.738649H170.585761a48.738649 48.738649 0 0 1-48.73865-48.738649V48.739624a48.738649 48.738649 0 0 1 48.73865-48.738649h418.177612a48.738649 48.738649 0 0 1 34.604441 14.134208l264.16348 263.676094a48.738649 48.738649 0 0 1 14.134208 34.604441V926.035315z" fill="#EBECF0" p-id="1398"></path><path d="M901.665502 926.035315v48.738649a48.738649 48.738649 0 0 1-48.738649 48.73865H170.585761a48.738649 48.738649 0 0 1-48.73865-48.73865v-48.738649a48.738649 48.738649 0 0 0 48.73865 48.738649h682.341092a48.738649 48.738649 0 0 0 48.738649-48.738649z" fill="#C1C7D0" p-id="1399"></path><path d="M711.58477 532.227027a43.864785 43.864785 0 0 0-29.730577 12.184662L552.209386 435.237114a43.377398 43.377398 0 0 0 4.386478-19.008073 44.352171 44.352171 0 0 0-44.839557-44.352171 43.377398 43.377398 0 0 0-41.915239 33.142282L355.792628 397.220968a44.352171 44.352171 0 1 0-15.596367 38.016146l68.234109 58.48638-65.30979 51.175582a44.352171 44.352171 0 1 0 0 64.822404L414.279008 666.258313l-75.544907 68.721496a43.377398 43.377398 0 0 0-26.318871-9.74773 44.352171 44.352171 0 1 0 43.864785 45.326944l115.023213-16.571141a43.864785 43.864785 0 1 0 80.906158-33.142282l131.594353-111.12412a43.377398 43.377398 0 0 0 27.781031 10.722502 44.352171 44.352171 0 0 0 0-88.216955zM486.412209 450.833482a43.377398 43.377398 0 0 0 26.318871 9.74773 43.864785 43.864785 0 0 0 31.192735-13.159435l129.157421 109.174575a42.890012 42.890012 0 0 0-4.386478 14.134208H555.621091a43.864785 43.864785 0 0 0-43.864784-38.503533 42.890012 42.890012 0 0 0-25.344098 9.260343l-55.56206-48.738649z m-136.468218-27.293643a42.402625 42.402625 0 0 0 4.873864-11.697276l114.535827 8.28557a42.890012 42.890012 0 0 0 6.823411 18.520687l-56.049447 44.352171z m70.183655 79.443998l57.02422 48.73865a42.890012 42.890012 0 0 0-7.310798 18.520686H355.305242a43.377398 43.377398 0 0 0-3.899092-14.134208z m-69.696269 97.477299a42.890012 42.890012 0 0 0 4.873865-12.672049h115.023213a43.377398 43.377398 0 0 0 8.772957 19.008074l-55.562061 49.226036z m118.434918 141.342084l-114.535826 16.57114a42.402625 42.402625 0 0 0-5.361251-10.235116l75.544906-70.183655 51.662969 40.940465a42.890012 42.890012 0 0 0-7.798184 20.95762z m75.544907-30.70535a43.864785 43.864785 0 0 0-32.654895-15.108981 43.377398 43.377398 0 0 0-26.318871 9.74773l-48.738649-39.965693 54.0999-51.662968a42.890012 42.890012 0 0 0 21.932393 6.823411 43.377398 43.377398 0 0 0 42.402625-36.066601h114.04844a42.890012 42.890012 0 0 0 4.873864 13.159436z" fill="#1296db" p-id="1400" data-spm-anchor-id="a313x.collections_detail.0.i4.cfb93a81nZhWhE" class="selected"></path><path d="M901.665502 312.415718v6.823411h-263.676093a48.738649 48.738649 0 0 1-48.73865-48.73865V0.000975a48.738649 48.738649 0 0 1 34.604442 14.134208l264.16348 263.676094a48.738649 48.738649 0 0 1 13.646821 34.604441z" fill="#C1C7D0" p-id="1401"></path></svg>