<?xml version="1.0" standalone="no"?><!DOCTYPE svg PUBLIC "-//W3C//DTD SVG 1.1//EN" "http://www.w3.org/Graphics/SVG/1.1/DTD/svg11.dtd"><svg t="1726030104826" class="icon" viewBox="0 0 1024 1024" version="1.1" xmlns="http://www.w3.org/2000/svg" p-id="16638" xmlns:xlink="http://www.w3.org/1999/xlink" width="300" height="300"><path d="M889.52832 914.20672l-566.33344 57.344-191.22176-172.05248 566.31296-57.36448z" fill="#EFF6FE" p-id="16639"></path><path d="M2.048 623.9232l0.04096-48.61952c0 1.3312 0.69632 2.70336 2.19136 4.03456l-0.04096 48.61952C2.74432 626.62656 2.048 625.2544 2.048 623.9232" fill="#CBE4FE" p-id="16640"></path><path d="M991.1296 777.4208l0.04096-48.61952a103.8336 103.8336 0 0 0 7.49568-1.024l-0.04096 48.61952c-2.33472 0.4096-4.83328 0.73728-7.49568 1.024" fill="#EAF4FE" p-id="16641"></path><path d="M998.62528 776.3968l0.04096-48.61952c1.86368-0.32768 3.62496-0.69632 5.28384-1.08544l-0.04096 48.61952a95.60064 95.60064 0 0 1-5.28384 1.08544" fill="#EAF4FE" p-id="16642"></path><path d="M1003.88864 775.31136l0.04096-48.61952a54.0672 54.0672 0 0 0 3.42016-0.94208l-0.04096 48.61952a72.4992 72.4992 0 0 1-3.42016 0.94208M1007.32928 774.36928l0.04096-48.61952c0.86016-0.26624 1.67936-0.53248 2.47808-0.8192l-0.04096 48.61952a58.61376 58.61376 0 0 1-2.47808 0.8192" fill="#EAF4FE" p-id="16643"></path><path d="M1009.78688 773.55008l0.04096-48.61952c0.67584-0.24576 1.31072-0.49152 1.90464-0.75776l-0.02048 48.61952c-0.6144 0.26624-1.24928 0.512-1.92512 0.75776" fill="#EAF4FE" p-id="16644"></path><path d="M1011.712 772.79232l0.04096-48.61952c0.55296-0.22528 1.06496-0.47104 1.55648-0.7168l-0.04096 48.61952-1.55648 0.7168" fill="#EAF4FE" p-id="16645"></path><path d="M1013.26848 772.07552l0.04096-48.61952c0.45056-0.22528 0.90112-0.45056 1.31072-0.69632l-0.04096 48.61952a26.5216 26.5216 0 0 1-1.31072 0.69632" fill="#EAF4FE" p-id="16646"></path><path d="M1014.55872 771.39968l0.04096-48.61952a26.2144 26.2144 0 0 0 1.10592-0.67584l-0.04096 48.61952-1.10592 0.67584" fill="#EAF4FE" p-id="16647"></path><path d="M1015.66464 770.70336l0.04096-48.61952 0.94208-0.67584-0.04096 48.61952a12.4928 12.4928 0 0 1-0.94208 0.67584M1016.6272 770.02752l0.04096-48.61952a13.78304 13.78304 0 0 0 0.79872-0.67584l-0.04096 48.61952a13.78304 13.78304 0 0 1-0.79872 0.67584" fill="#EAF4FE" p-id="16648"></path><path d="M1017.40544 769.3312l0.04096-48.61952a5.20192 5.20192 0 0 0 0.65536-0.69632l-0.04096 48.61952a5.20192 5.20192 0 0 1-0.65536 0.69632M1018.08128 768.65536l0.04096-48.61952a4.32128 4.32128 0 0 0 0.53248-0.7168l-0.04096 48.61952a8.0896 8.0896 0 0 1-0.53248 0.7168" fill="#EAF4FE" p-id="16649"></path><path d="M1018.61376 767.93856l0.04096-48.61952c0.16384-0.24576 0.28672-0.49152 0.4096-0.73728l-0.04096 48.61952c-0.12288 0.24576-0.24576 0.49152-0.4096 0.73728" fill="#EAF4FE" p-id="16650"></path><path d="M1019.02336 767.20128l0.04096-48.61952a3.72736 3.72736 0 0 0 0.26624-0.75776l-0.04096 48.61952a5.57056 5.57056 0 0 1-0.26624 0.75776M1019.2896 766.44352l0.04096-48.61952a5.65248 5.65248 0 0 0 0.12288-0.8192l-0.04096 48.61952a5.65248 5.65248 0 0 1-0.12288 0.8192" fill="#EAF4FE" p-id="16651"></path><path d="M1019.392 765.62432l0.06144-48.61952v-0.12288l-0.06144 48.61952v0.12288" fill="#EAF4FE" p-id="16652"></path><path d="M4.23936 627.95776l0.04096-48.61952L240.128 791.552l-0.04096 48.61952z" fill="#CBE4FE" p-id="16653"></path><path d="M292.74112 848.13824l0.04096-48.61952 698.38848-70.71744-0.04096 48.61952z" fill="#EAF4FE" p-id="16654"></path><path d="M240.08704 840.17152l0.04096-48.61952c1.8432 1.65888 4.73088 3.13344 8.35584 4.36224l-0.04096 48.61952a24.49408 24.49408 0 0 1-8.35584-4.36224" fill="#EAF4FE" p-id="16655"></path><path d="M248.4224 844.53376l0.04096-48.61952c0.94208 0.32768 1.92512 0.63488 2.9696 0.9216l-0.04096 48.61952a50.83136 50.83136 0 0 1-2.9696-0.9216" fill="#EAF4FE" p-id="16656"></path><path d="M251.392 845.45536l0.04096-48.61952 2.62144 0.67584-0.04096 48.61952-2.62144-0.67584" fill="#EAF4FE" p-id="16657"></path><path d="M254.01344 846.11072l0.04096-48.61952 2.43712 0.53248-0.04096 48.61952a42.55744 42.55744 0 0 1-2.43712-0.53248M256.45056 846.6432l0.04096-48.61952c0.75776 0.16384 1.536 0.3072 2.33472 0.43008l-0.04096 48.61952a39.38304 39.38304 0 0 1-2.33472-0.43008M258.78528 847.09376l0.04096-48.61952 2.27328 0.36864-0.04096 48.61952-2.27328-0.36864M261.05856 847.4624l0.04096-48.61952c0.73728 0.1024 1.47456 0.22528 2.23232 0.3072l-0.04096 48.61952-2.23232-0.3072M263.31136 847.7696l0.04096-48.61952 2.23232 0.26624-0.04096 48.61952a66.88768 66.88768 0 0 1-2.23232-0.26624M265.54368 848.03584l0.04096-48.61952 2.2528 0.22528-0.04096 48.61952-2.2528-0.22528" fill="#EAF4FE" p-id="16658"></path><path d="M267.776 848.26112l0.04096-48.61952 2.2528 0.18432-0.04096 48.61952-2.2528-0.18432M270.0288 848.44544l0.04096-48.61952 2.2528 0.14336-0.04096 48.61952a83.10784 83.10784 0 0 1-2.2528-0.14336M272.2816 848.5888l0.04096-48.61952 2.2528 0.1024-0.04096 48.61952-2.2528-0.1024" fill="#EAF4FE" p-id="16659"></path><path d="M274.5344 848.6912l0.04096-48.61952 2.2528 0.06144-0.04096 48.61952a41.3696 41.3696 0 0 1-2.2528-0.06144M276.7872 848.75264l0.04096-48.61952 2.23232 0.02048-0.04096 48.61952c-0.75776 0.02048-1.49504 0-2.23232-0.02048M279.01952 848.7936l0.04096-48.61952h2.27328l-0.04096 48.61952h-2.27328" fill="#EAF4FE" p-id="16660"></path><path d="M281.2928 848.77312l0.04096-48.61952 2.39616-0.06144-0.04096 48.61952a46.77632 46.77632 0 0 1-2.39616 0.06144M283.68896 848.73216l0.04096-48.61952 2.6624-0.1024-0.04096 48.61952-2.6624 0.1024" fill="#EAF4FE" p-id="16661"></path><path d="M286.35136 848.62976l0.04096-48.61952c1.31072-0.06144 2.64192-0.14336 3.95264-0.26624l-0.04096 48.61952-3.95264 0.26624M290.304 848.36352l0.04096-48.61952 2.43712-0.22528-0.04096 48.61952-2.43712 0.22528" fill="#EAF4FE" p-id="16662"></path><path d="M991.17056 728.80128l-698.38848 70.71744c-21.74976 2.21184-45.32224-1.37216-52.65408-7.96672L4.28032 579.33824c-7.33184-6.59456 4.32128-13.74208 26.07104-15.95392l698.38848-70.71744c21.72928-2.19136 45.32224 1.37216 52.65408 7.96672L1017.2416 712.82688c7.35232 6.63552-4.34176 13.76256-26.07104 15.9744z" fill="#DFEEFE" p-id="16663"></path><path d="M786.00192 672.95232L363.04896 715.776l-142.80704-128.49152 422.95296-42.84416z" fill="#7DBEFE" p-id="16664"></path><path d="M657.26464 72.17152l-57.50784-31.27296c3.23584-0.45056 6.3488-0.26624 9.23648 0.47104l57.50784 31.27296a23.90016 23.90016 0 0 0-9.23648-0.47104" fill="#A2D0FF" p-id="16665"></path><path d="M666.50112 72.66304L608.99328 41.3696c1.49504 0.38912 2.90816 0.9216 4.25984 1.57696l57.50784 31.27296a22.07744 22.07744 0 0 0-4.25984-1.55648" fill="#A2D0FF" p-id="16666"></path><path d="M670.76096 74.24l-57.50784-31.27296 0.8192 0.43008 57.50784 31.27296a6.2464 6.2464 0 0 0-0.8192-0.43008" fill="#A2D0FF" p-id="16667"></path><path d="M384.47104 224.72704l-57.50784-31.27296c-7.53664-4.096-12.57472-12.4928-12.55424-22.81472l57.50784 31.27296c0 10.32192 5.0176 18.71872 12.55424 22.81472" fill="#A2D0FF" p-id="16668"></path><path d="M399.03232 108.46208l-57.50784-31.27296 258.23232-36.29056 57.50784 31.27296z" fill="#A2D0FF" p-id="16669"></path><path d="M371.93728 201.9328l-57.50784-31.29344 0.1024-60.57984 57.50784 31.27296z" fill="#A2D0FF" p-id="16670"></path><path d="M372.03968 141.33248l-57.50784-31.27296c0-3.91168 0.73728-7.76192 2.06848-11.3664l57.50784 31.27296a32.84992 32.84992 0 0 0-2.06848 11.3664" fill="#A2D0FF" p-id="16671"></path><path d="M374.10816 129.96608l-57.50784-31.27296c0.57344-1.57696 1.26976-3.09248 2.048-4.54656l57.50784 31.27296a34.97984 34.97984 0 0 0-2.048 4.54656M376.15616 125.41952l-57.50784-31.27296c0.67584-1.24928 1.41312-2.43712 2.21184-3.584l57.50784 31.27296a33.66912 33.66912 0 0 0-2.21184 3.584" fill="#A2D0FF" p-id="16672"></path><path d="M378.368 121.83552l-57.50784-31.27296c0.75776-1.08544 1.57696-2.10944 2.43712-3.09248l57.50784 31.27296a35.96288 35.96288 0 0 0-2.43712 3.09248" fill="#A2D0FF" p-id="16673"></path><path d="M380.80512 118.74304L323.29728 87.4496a39.7312 39.7312 0 0 1 2.7648-2.80576l57.50784 31.27296a40.05888 40.05888 0 0 0-2.7648 2.82624" fill="#A2D0FF" p-id="16674"></path><path d="M383.56992 115.93728l-57.50784-31.27296a33.1776 33.1776 0 0 1 3.2768-2.60096l57.50784 31.27296a33.1776 33.1776 0 0 0-3.2768 2.60096" fill="#A2D0FF" p-id="16675"></path><path d="M386.84672 113.33632l-57.50784-31.27296c1.39264-0.96256 2.8672-1.80224 4.38272-2.51904l57.50784 31.27296a31.10912 31.10912 0 0 0-4.38272 2.51904M391.22944 110.81728l-57.50784-31.27296c2.47808-1.16736 5.09952-1.96608 7.80288-2.3552l57.50784 31.27296c-2.70336 0.38912-5.3248 1.18784-7.80288 2.3552" fill="#A2D0FF" p-id="16676"></path><path d="M657.26464 72.17152c14.80704-2.08896 26.91072 9.29792 26.89024 25.2928L684.032 158.06464c-0.02048 15.99488-12.1856 30.78144-26.99264 32.8704l-258.23232 36.29056c-14.80704 2.08896-26.91072-9.29792-26.89024-25.2928l0.1024-60.60032c0.02048-15.99488 12.1856-30.78144 26.99264-32.8704l258.2528-36.29056z" fill="#4CA7FF" p-id="16677"></path><path d="M617.65632 560.00512l-57.50784-31.27296a16.7936 16.7936 0 0 0 4.87424-1.47456l57.50784 31.27296a16.54784 16.54784 0 0 1-4.87424 1.47456" fill="#FFFFFF" p-id="16678"></path><path d="M622.53056 558.55104l-57.50784-31.27296c0.94208-0.45056 1.86368-0.98304 2.74432-1.57696l57.50784 31.27296a21.58592 21.58592 0 0 1-2.74432 1.57696" fill="#FFFFFF" p-id="16679"></path><path d="M625.2544 556.97408l-57.50784-31.27296a19.18976 19.18976 0 0 0 2.048-1.61792l57.50784 31.27296a26.33728 26.33728 0 0 1-2.048 1.61792M627.3024 555.33568l-57.50784-31.27296a19.70176 19.70176 0 0 0 1.72032-1.7408l57.50784 31.27296a17.26464 17.26464 0 0 1-1.72032 1.7408M629.0432 553.59488l-57.50784-31.27296c0.53248-0.6144 1.04448-1.26976 1.536-1.9456l57.50784 31.27296a24.71936 24.71936 0 0 1-1.536 1.9456" fill="#FFFFFF" p-id="16680"></path><path d="M630.55872 551.64928l-57.50784-31.27296a19.18976 19.18976 0 0 0 1.37216-2.23232l57.50784 31.27296a17.6128 17.6128 0 0 1-1.37216 2.23232M631.95136 549.41696L574.44352 518.144a23.7568 23.7568 0 0 0 1.29024-2.84672l57.50784 31.27296a22.36416 22.36416 0 0 1-1.29024 2.84672" fill="#FFFFFF" p-id="16681"></path><path d="M633.22112 546.57024l-57.50784-31.27296c0.8192-2.2528 1.29024-4.64896 1.29024-7.10656 0.02048-6.4512-3.13344-11.69408-7.84384-14.25408l57.50784 31.27296c4.7104 2.56 7.86432 7.80288 7.84384 14.25408 0 2.4576-0.45056 4.85376-1.29024 7.10656" fill="#FFFFFF" p-id="16682"></path><path d="M701.07136 259.97312l-57.50784-31.27296c10.17856-1.4336 19.92704-0.83968 28.95872 1.49504l57.50784 31.27296a73.99424 73.99424 0 0 0-28.95872-1.49504M730.05056 261.46816l-57.50784-31.27296c4.64896 1.20832 9.1136 2.8672 13.35296 4.93568l57.50784 31.27296a68.608 68.608 0 0 0-13.35296-4.93568" fill="#A2D0FF" p-id="16683"></path><path d="M743.40352 266.40384l-57.50784-31.27296c0.88064 0.43008 1.7408 0.88064 2.58048 1.3312l57.50784 31.27296a51.46624 51.46624 0 0 0-2.58048-1.3312" fill="#A2D0FF" p-id="16684"></path><path d="M442.51136 584.62208l-57.50784-31.27296 175.14496-24.61696 57.50784 31.27296z" fill="#FFFFFF" p-id="16685"></path><path d="M433.54112 583.0656l-57.50784-31.27296 0.512 0.26624 57.50784 31.27296-0.512-0.26624" fill="#FFFFFF" p-id="16686"></path><path d="M434.05312 583.35232l-57.50784-31.27296c0.83968 0.4096 1.7408 0.73728 2.6624 0.98304l57.50784 31.27296a15.36 15.36 0 0 1-2.6624-0.98304M436.736 584.33536l-57.50784-31.27296a15.03232 15.03232 0 0 0 5.77536 0.3072l57.50784 31.27296a15.44192 15.44192 0 0 1-5.77536-0.3072" fill="#FFFFFF" p-id="16687"></path><path d="M384.26624 648.88832l-57.50784-31.27296c-7.53664-4.096-12.57472-12.4928-12.55424-22.81472l57.50784 31.27296c-0.02048 10.32192 5.0176 18.71872 12.55424 22.81472" fill="#A2D0FF" p-id="16688"></path><path d="M371.712 626.0736l-57.50784-31.27296 0.2048-104.22272 57.50784 31.29344z" fill="#A2D0FF" p-id="16689"></path><path d="M371.9168 521.87136l-57.50784-31.27296c0-3.39968 0.57344-6.73792 1.59744-9.91232l57.50784 31.27296c-1.024 3.1744-1.59744 6.51264-1.59744 9.91232" fill="#A2D0FF" p-id="16690"></path><path d="M283.48416 520.11008l-57.50784-31.27296c-7.53664-4.096-12.57472-12.51328-12.55424-22.8352l57.50784 31.27296c-0.02048 10.3424 5.0176 18.7392 12.55424 22.8352" fill="#A2D0FF" p-id="16691"></path><path d="M355.6352 308.51072l-57.50784-31.27296 345.45664-48.55808 57.48736 31.29344z" fill="#A2D0FF" p-id="16692"></path><path d="M270.92992 497.29536l-57.48736-31.29344 0.14336-85.85216 57.50784 31.29344z" fill="#A2D0FF" p-id="16693"></path><path d="M701.07136 259.97312c46.42816-6.53312 84.29568 29.12256 84.19328 79.19616l-0.16384 85.85216c-0.02048 16.01536-12.1856 30.80192-26.99264 32.89088l-75.6736 10.62912c1.00352 2.88768 1.55648 6.06208 1.55648 9.46176l-0.18432 104.22272c-0.02048 15.99488-12.1856 30.78144-26.99264 32.8704l-258.23232 36.29056c-14.80704 2.08896-26.91072-9.29792-26.89024-25.2928l0.18432-104.22272c0-3.39968 0.57344-6.73792 1.59744-9.91232l-75.6736 10.62912c-14.80704 2.08896-26.91072-9.29792-26.89024-25.31328l0.16384-85.85216c0.1024-50.0736 38.13376-96.39936 84.54144-102.912l345.45664-48.5376z m-83.41504 300.032c9.25696-1.31072 16.85504-10.5472 16.87552-20.54144s-7.53664-17.1008-16.7936-15.81056l-175.14496 24.61696c-9.25696 1.31072-16.85504 10.5472-16.87552 20.54144s7.53664 17.1008 16.7936 15.81056l175.14496-24.61696" fill="#4CA7FF" p-id="16694"></path><path d="M271.09376 411.4432l-57.50784-31.27296a104.2432 104.2432 0 0 1 6.47168-35.61472l57.50784 31.27296a104.0384 104.0384 0 0 0-6.47168 35.61472" fill="#A2D0FF" p-id="16695"></path><path d="M277.56544 375.82848l-57.50784-31.27296c1.80224-4.9152 3.95264-9.66656 6.41024-14.25408l57.50784 31.27296c-2.4576 4.58752-4.608 9.33888-6.41024 14.25408" fill="#A2D0FF" p-id="16696"></path><path d="M283.97568 361.5744l-57.50784-31.27296c2.08896-3.87072 4.4032-7.61856 6.92224-11.20256l57.50784 31.27296a112.00512 112.00512 0 0 0-6.92224 11.20256" fill="#A2D0FF" p-id="16697"></path><path d="M290.89792 350.37184l-57.50784-31.27296c2.37568-3.3792 4.93568-6.63552 7.65952-9.70752l57.50784 31.27296a107.1104 107.1104 0 0 0-7.65952 9.70752M298.55744 340.64384l-57.50784-31.27296a109.3632 109.3632 0 0 1 8.66304-8.76544l57.50784 31.27296c-3.05152 2.7648-5.9392 5.67296-8.66304 8.76544" fill="#A2D0FF" p-id="16698"></path><path d="M307.22048 331.89888l-57.50784-31.27296c3.25632-2.92864 6.67648-5.65248 10.26048-8.11008l57.50784 31.27296c-3.584 2.4576-7.00416 5.18144-10.26048 8.11008" fill="#A2D0FF" p-id="16699"></path><path d="M317.46048 323.7888l-57.50784-31.27296c4.36224-3.01056 8.94976-5.67296 13.70112-7.90528l57.50784 31.27296a95.37536 95.37536 0 0 0-13.70112 7.90528M331.18208 315.88352l-57.50784-31.27296c7.76192-3.64544 15.9744-6.16448 24.45312-7.35232l57.50784 31.27296a84.992 84.992 0 0 0-24.45312 7.35232" fill="#A2D0FF" p-id="16700"></path></svg>