<?xml version="1.0" standalone="no"?><!DOCTYPE svg PUBLIC "-//W3C//DTD SVG 1.1//EN" "http://www.w3.org/Graphics/SVG/1.1/DTD/svg11.dtd"><svg t="1724987965535" class="icon" viewBox="0 0 1024 1024" version="1.1" xmlns="http://www.w3.org/2000/svg" p-id="59723" xmlns:xlink="http://www.w3.org/1999/xlink" width="300" height="300"><path d="M341.333333 267.648c0-14.421333 5.674667-28.245333 15.786667-38.4 10.112-10.197333 23.808-15.914667 38.101333-15.914667h377.258667c21.461333 0 42.026667 8.576 57.173333 23.893334 15.146667 15.232 23.68 35.968 23.68 57.6v434.346666c0 21.632-8.533333 42.368-23.68 57.6-15.146667 15.317333-35.712 23.893333-57.173333 23.893334H395.221333c-14.293333 0-27.989333-5.717333-38.101333-15.914667a54.528 54.528 0 0 1-15.786667-38.4V267.648z" fill="#FF4747" p-id="59724"></path><path d="M341.333333 267.648c0-14.421333 5.674667-28.245333 15.786667-38.4 10.112-10.197333 23.808-15.914667 38.101333-15.914667h377.258667c21.461333 0 42.026667 8.576 57.173333 23.893334 15.146667 15.232 23.68 35.968 23.68 57.6v434.346666c0 21.632-8.533333 42.368-23.68 57.6-15.146667 15.317333-35.712 23.893333-57.173333 23.893334H395.221333c-14.293333 0-27.989333-5.717333-38.101333-15.914667a54.528 54.528 0 0 1-15.786667-38.4V267.648z" fill="#FFFFFF" fill-opacity=".5" p-id="59725"></path><path d="M128 246.314667c0-12.330667 4.48-24.277333 12.757333-34.048a62.72 62.72 0 0 1 32.981334-20.053334l256.426666-63.232a34.218667 34.218667 0 0 1 27.008 4.778667c3.754667 2.645333 6.826667 5.973333 8.96 9.898667 2.133333 3.84 3.2 8.106667 3.2 12.416v711.893333c0 4.309333-1.109333 8.533333-3.2 12.416a28.928 28.928 0 0 1-9.002666 9.856 34.261333 34.261333 0 0 1-27.008 4.778667l-256.384-63.189334a62.72 62.72 0 0 1-33.024-20.053333 52.693333 52.693333 0 0 1-12.714667-34.133333V246.357333z" fill="#FF4747" p-id="59726"></path><path d="M568.021333 355.242667c0-2.858667 0.853333-5.632 2.389334-7.936a13.525333 13.525333 0 0 1 6.4-5.12 13.098667 13.098667 0 0 1 14.933333 4.010666l130.346667 156.8a14.122667 14.122667 0 0 1 0 18.005334l-130.389334 156.8a13.354667 13.354667 0 0 1-14.933333 4.010666 13.525333 13.525333 0 0 1-6.357333-5.12 14.208 14.208 0 0 1-2.389334-7.936v-101.248h-67.370666a13.269333 13.269333 0 0 1-9.514667-4.053333 14.08 14.08 0 0 1-3.925333-9.813333v-83.285334a14.08 14.08 0 0 1 3.925333-9.813333c2.56-2.56 5.973333-4.053333 9.557333-4.053333h67.328V355.242667zM325.546667 456.490667a26.24 26.24 0 0 0-19.029334 8.106666 27.818667 27.818667 0 0 0-7.893333 19.626667v55.509333a28.16 28.16 0 0 0 7.893333 19.626667 26.538667 26.538667 0 0 0 38.101334 0 28.16 28.16 0 0 0 7.893333-19.626667v-55.466666a28.458667 28.458667 0 0 0-7.893333-19.626667 26.88 26.88 0 0 0-19.072-8.149333z" fill="#FFFFFF" p-id="59727"></path></svg>