<?xml version="1.0" standalone="no"?><!DOCTYPE svg PUBLIC "-//W3C//DTD SVG 1.1//EN" "http://www.w3.org/Graphics/SVG/1.1/DTD/svg11.dtd"><svg t="1724983393831" class="icon" viewBox="0 0 1024 1024" version="1.1" xmlns="http://www.w3.org/2000/svg" p-id="5880" xmlns:xlink="http://www.w3.org/1999/xlink" width="300" height="300"><path d="M77.828 667.028c150.192 146.64 318.28 256.4 490.94 327.584 104.64-140.132 230.812-249.844 366.2-325.92-146.66-71.884-285.104-176.836-404.332-312.208-159.116 70.768-313.636 174.752-452.808 310.544z" fill="#FF4D4D" opacity=".8" p-id="5881"></path><path d="M77.828 498.944c150.192 146.644 318.28 256.4 490.94 327.584 104.64-140.136 230.812-249.844 366.2-325.924-146.668-71.884-285.104-176.836-404.332-312.212C371.52 259.168 217 363.148 77.828 498.944z" fill="#FFA54A" p-id="5882"></path><path d="M89.028 339.94c150.196 146.644 318.288 256.4 490.944 327.588 104.64-140.136 230.816-249.848 366.2-325.928-146.664-71.88-285.108-176.836-404.332-312.208C382.728 100.168 228.204 204.148 89.028 339.94z" fill="#FFD685" p-id="5883"></path></svg>