<?xml version="1.0" standalone="no"?><!DOCTYPE svg PUBLIC "-//W3C//DTD SVG 1.1//EN" "http://www.w3.org/Graphics/SVG/1.1/DTD/svg11.dtd"><svg t="1724985129695" class="icon" viewBox="0 0 1024 1024" version="1.1" xmlns="http://www.w3.org/2000/svg" p-id="30716" xmlns:xlink="http://www.w3.org/1999/xlink" width="300" height="300"><path d="M512 512m-448 0a448 448 0 1 0 896 0 448 448 0 1 0-896 0Z" fill="#FF5555"  p-id="30717"></path><path d="M431.21 691.26c-7.98 0-15.31-4.54-18.85-11.76l-65.83-134.32-48.36 72.54a21.008 21.008 0 0 1-17.47 9.35h-53.12c-11.59 0-21-9.4-21-21s9.41-21 21-21h41.88l62.38-93.57c4.17-6.25 11.42-9.85 18.87-9.3 7.49 0.49 14.15 4.96 17.46 11.71l60.27 122.97L527.7 346.5a21 21 0 0 1 19.71-13.76h0.11c8.85 0.05 16.71 5.63 19.67 13.97l83.51 234.83 145.43-2c11.87 0.4 21.12 9.12 21.29 20.71s-9.12 21.12-20.71 21.29l-160.47 2.21c-9.17-0.41-17.06-5.5-20.07-13.97L547.1 415.53 450.92 677.5a20.983 20.983 0 0 1-19.71 13.76z" fill="#FFFFFF" p-id="30718"></path></svg>
