<?xml version="1.0" standalone="no"?><!DOCTYPE svg PUBLIC "-//W3C//DTD SVG 1.1//EN" "http://www.w3.org/Graphics/SVG/1.1/DTD/svg11.dtd"><svg t="1726030406457" class="icon" viewBox="0 0 1024 1024" version="1.1" xmlns="http://www.w3.org/2000/svg" p-id="48915" xmlns:xlink="http://www.w3.org/1999/xlink" width="300" height="300"><path d="M580.36148147 554.66666666m-432.91488922 0a432.91488922 432.91488922 0 1 0 865.82977843 0 432.91488922 432.91488922 0 1 0-865.82977843 0Z" fill="#7ECEF4" p-id="48916"></path><path d="M983.70423391 664.09758385a416.20250507 416.20250507 0 0 1-672.28879091 208.50613716C506.7721796 964.71804229 772.4448838 910.53516297 882.4675548 719.73493321c97.93219997-169.83344466 34.77645818-396.63724442-99.49567634-527.43048578a416.05923869 416.05923869 0 0 1 200.73235545 471.79313642z" fill="#64B1D6" p-id="48917"></path><path d="M949.27971476 524.57440995c5.80541936 15.57247794 0 52.70037963 0 52.70037962s8.99154939 49.26820588 29.31986131 50.58252332c31.42526107 2.03376589 17.8647469-54.12058961 19.6213228-107.04521365 7.60871325-59.9415821-66.28892486-186.7046683-71.52750631-203.27066951-7.33463706-5.107773 28.0865219 82.69608657 15.05858561 101.63533475-6.81763091 9.90409599-1.50118661 81.19801513 7.52773659 105.39764547z" fill="#94F47E" p-id="48918"></path><path d="M244.27314609 354.82505711a419.98661788 419.98661788 0 0 0 146.12279076 568.99343002A416.04989454 416.04989454 0 0 1 700.30070641 155.23260649a419.23602317 419.23602317 0 0 0-456.02756032 199.59245062z" fill="#A2E8FA" p-id="48919"></path><path d="M768.57667916 234.7269913c-12.51404394 41.67817954-65.40440795 28.34190979-75.28981563 82.81443843-2.88090897 15.86212589-14.97449518 41.93668261-41.29198321 72.05697038-25.78802398 29.51296084 0.47651851 100.28675867-18.68697409 102.77835475-16.94285614 2.19571918-31.00168953-43.35689258-40.48844296-43.60293909-10.19685909-0.26473204-15.19250923 16.19537663-31.1449559 21.80147023-11.12809264 3.90869227-55.57505963-22.42436891-59.17541565 21.80146886-3.44774688 42.35714035 14.25193154 78.56315129 28.03045975 71.63339884 6.4376622-3.23907561 28.55992523-46.55859435 28.03046116-18.68697408-0.07786285 4.16096636 0 49.83192999 0 49.83192998s42.22944573-16.81827668 46.71743385 0c3.32316742 12.4579818 38.35501349 50.47663075 37.37394679 52.94642475-3.97721095 10.02867546-24.86613321-13.88753593-84.09138064-15.57247794-49.77275406-31.64639029-65.01198127-22.5209173-109.63024571-45.91700875-5.02679636-6.99827115 7.20071344-12.73205798 0.62289868-16.37290306-36.10634736-19.96703149-66.38547325-47.7327592-83.77993064-79.54110278-1.28317257-2.34521453 28.19241443 70.35957042 30.83350588 82.65559894s-6.7086232-1.11187511-18.6869741-24.91596501c-2.84664893-5.65280883-12.64173719-7.74886445-15.57247794-15.57247794-2.96811458-7.92327708-3.42594479-21.92293452-6.2289909-31.14495591-10.46159114-34.49926819-40.02126859-37.95635785-56.06092091-84.09138201-10.47716288-30.13274434 1.69428617-85.86664347-3.11449475-93.43486772-17.12972533-26.96218883-48.24976534-5.97671681-52.94642614-18.68697409 64.4108833-74.43644496 134.27213451-128.44491305 246.00154962-157.35988973C568.77244346 127.76275429 700.45020314 140.48546954 807.71965982 205.84315948c8.86385474 5.40053473-34.37780253 13.01547695-39.14298066 28.88383182z m-205.13313794 39.86554426c-11.38659569-1.15859172-60.872817 2.35767385-45.63358979 10.68894797 11.40839779 6.22899091 18.42847102-0.89074589 31.59344333 7.12908094s2.63174866 20.49026659 14.04014646 14.25193154 8.77664912-31.18544491 0-32.07618942z m28.08340671 35.96619479c-15.79672236-3.56298357-30.02373801-0.55749515-35.10347994 10.61420166 8.75796221-19.26938374-15.10218979 24.915965 0 35.38378373 6.68370732 4.62502554 13.1867744-41.12691474 24.57337011-39.2021552 10.53010985 1.78149179 13.16185852 25.88768754 21.06021969 32.12602121s0.87828795-15.91195766 7.02318703-17.69344945 10.53010985 6.05769346 14.04014645-0.17752643-15.79672236-17.49412233-31.59344334-21.0571045z m42.1235532 31.74293868l-14.04014647 14.25504671s-27.20511877 0-31.59344335 7.12596577c2.63174866 7.12596577 12.85663746 2.63797763 21.06333351 3.56298358 7.56199526 0.85337206 10.53010985-7.12596577 10.53010984-7.12596577l17.55018306-10.69206313 21.0633335-7.13219614h-24.57337009z" fill="#94F47E" p-id="48920"></path><path d="M861.4976559 756.012578s8.26275679 32.28797589-11.29316111 45.16018647c-6.79582883 4.47864537-31.27265054 18.23848666-41.42279164 26.35174672-34.4743523 27.61000339-10.30586544 42.80874159-60.23745899 69.73667175 0 0-51.29885658 40.64728244-71.37489579 50.86282708s-86.42413861 10.48650704-82.82066739 7.5277366c15.35446389-12.61059233 97.13488867-122.17543314 85.93516354-123.70465083C624.325701 824.30412389 619.37988265 790.37480879 586.59047238 757.10888139c-18.45338691-18.72434793 7.66165883-50.39876791 18.6869741-68.5189041 12.62305028-20.74565586 40.82169369-63.75061078 56.06092088-65.40440792a37.31788606 37.31788606 0 0 1 9.16596064 1.96524718L667.56735827 657.4450214l0.28964792-0.06540491L667.56735827 660.55951755s21.80146885-4.67174353 21.80146885-12.4579832a6.34734139 6.34734139 0 0 0-0.25850306-1.66313991A4.3602935 4.3602935 0 0 0 689.36882712 644.9870396c0-5.4503679-9.14415853-13.9404829-14.63812925-18.54993669 26.13373266 8.27521473 81.26030485 30.9830026 93.30405927 52.47302281 24.27126422 43.31017597-2.94008352-11.94097567 26.35174809-3.76231071 29.60950924 8.26587197 71.35620885 31.58098539 97.22832327 31.92669408 25.11217834 0.33947972-30.1171726 48.93806892-30.1171726 48.93806891z" fill="#94F47E" p-id="48921"></path><path d="M245.89268457 189.15257743m-18.44404276 0a18.44404276 18.44404276 0 1 0 36.88808555 0 18.44404276 18.44404276 0 1 0-36.88808555 0Z" fill="#8BDAFF" p-id="48922"></path><path d="M91.89644992 177.43584479h3.42594479a6.22899091 6.22899091 0 0 1 6.2289909 6.2289909v88.05613507a6.22899091 6.22899091 0 0 1-6.2289909 6.22899091h-3.42594479a6.22899091 6.22899091 0 0 1-6.2289923-6.22899091v-88.05613507a6.22899091 6.22899091 0 0 1 6.2289923-6.2289909zM49.65143108 219.73380921h87.94089836a6.22899091 6.22899091 0 0 1 6.2289909 6.22899229v3.45708965a6.22899091 6.22899091 0 0 1-6.2289909 6.2289909H49.65143108a6.22899091 6.22899091 0 0 1-6.22899091-6.2289909v-3.45708965a6.22899091 6.22899091 0 0 1 6.22899091-6.22899229z" fill="#BDF2FF" p-id="48923"></path><path d="M54.70002815 371.76168291h0.86894518a5.63723709 5.63723709 0 0 1 5.63723709 5.63723709v65.78437667a5.63723709 5.63723709 0 0 1-5.63723709 5.63723709h-0.86894518a5.63723709 5.63723709 0 0 1-5.6372371-5.63723709v-65.78437667a5.63723709 5.63723709 0 0 1 5.6372371-5.63723709zM22.27501486 404.21784245h65.71585658a5.63723709 5.63723709 0 0 1 5.6372371 5.6372371v0.87205896a5.63723709 5.63723709 0 0 1-5.6372371 5.63723709h-65.71585658a5.63723709 5.63723709 0 0 1-5.63723709-5.63723709v-0.88451693a5.63723709 5.63723709 0 0 1 5.63723709-5.62477913z" fill="#7ECEF4" p-id="48924"></path><path d="M934.6228986 208.76767126a11.72919058 11.72919058 0 1 1-11.71361884 11.72919059 11.71984643 11.71984643 0 0 1 11.71361884-11.72919059z" fill="#BDF2FF" p-id="48925"></path><path d="M785.25168947 34.54590067h0.86583a5.42545201 5.42545201 0 0 1 5.42545064 5.42545201v62.85986488a5.42545201 5.42545201 0 0 1-5.42545064 5.42545063h-0.86583a5.42545201 5.42545201 0 0 1-5.42233682-5.42545063V39.97135268A5.42545201 5.42545201 0 0 1 785.25168947 34.54590067z m-30.95808671 30.99234673h62.78511723a5.42233683 5.42233683 0 0 1 5.42233682 5.42545064v0.87828796a5.42233683 5.42233683 0 0 1-5.42233682 5.42545201h-62.78511723a5.42545201 5.42545201 0 0 1-5.42545062-5.42545201v-0.88140176a5.42545201 5.42545201 0 0 1 5.42545062-5.42233684z" fill="#7ECEF4" p-id="48926"></path><path d="M984.54203422 135.06001752h0.56995171a4.21391195 4.21391195 0 0 1 4.21391333 4.21079815v48.53318567a4.21391195 4.21391195 0 0 1-4.21391333 4.21391194h-0.56995171a4.21079813 4.21079813 0 0 1-4.21079815-4.21391194V139.27081567a4.21079813 4.21079813 0 0 1 4.21079815-4.21079815z m-23.95047143 23.98161629h48.47400974a4.21079813 4.21079813 0 0 1 4.21079815 4.20456918v0.58241103a4.21079813 4.21079813 0 0 1-4.21079815 4.21079815h-48.47400974a4.21079813 4.21079813 0 0 1-4.21391331-4.21079815v-0.58241103a4.21391195 4.21391195 0 0 1 4.21391331-4.21079815z" fill="#BDF2FF" p-id="48927"></path></svg>