<?xml version="1.0" standalone="no"?><!DOCTYPE svg PUBLIC "-//W3C//DTD SVG 1.1//EN" "http://www.w3.org/Graphics/SVG/1.1/DTD/svg11.dtd"><svg t="1725762759263" class="icon" viewBox="0 0 1024 1024" version="1.1" xmlns="http://www.w3.org/2000/svg" p-id="7064" xmlns:xlink="http://www.w3.org/1999/xlink" width="300" height="300"><path d="M797.76 841.01l77.74 77.74c39.51 25.53 46.32-20.91 46.32-20.91l25.24-344.64c12.42-68.91-46.73-52.27-46.73-52.27l-340.48 23.85c-63.3 9.59-25.07 53.37-25.07 53.37l72.08 72.08c-126.95 242.93-434.51 86.69-434.51 86.69-19.7-5.72-11.21 11.21-11.21 11.21 276.33 419.21 636.62 92.88 636.62 92.88z" fill="#02b75b" p-id="7065"></path><path d="M226.24 182.99l-77.74-77.74c-39.51-25.53-46.32 20.91-46.32 20.91L76.93 470.8c-12.42 68.91 46.73 52.27 46.73 52.27l340.48-23.85c63.3-9.59 25.07-53.37 25.07-53.37l-72.08-72.08c126.95-242.93 434.51-86.69 434.51-86.69 19.7 5.72 11.21-11.21 11.21-11.21-276.32-419.21-636.61-92.88-636.61-92.88z" fill="#02b75b" fill-opacity=".5" p-id="7066"></path></svg>
