<?xml version="1.0" standalone="no"?><!DOCTYPE svg PUBLIC "-//W3C//DTD SVG 1.1//EN" "http://www.w3.org/Graphics/SVG/1.1/DTD/svg11.dtd"><svg t="1725963514824" class="icon" viewBox="0 0 1024 1024" version="1.1" xmlns="http://www.w3.org/2000/svg" p-id="3377" xmlns:xlink="http://www.w3.org/1999/xlink" width="300" height="300"><path d="M811.1616 393.3184c-5.2736-160.6656-137.0624-289.28-299.008-289.28s-293.7344 128.6144-299.008 289.28c-100.9152 3.328-181.7088 86.1184-181.7088 187.8528 0 103.8336 84.1728 188.0064 188.0064 188.0064h585.3696c103.8336 0 188.0064-84.1728 188.0064-188.0064 0.0512-101.7344-80.7424-184.5248-181.6576-187.8528z" fill="#80B7F9" p-id="3378"></path><path d="M652.8 481.2288l-117.8112-91.4432a40.4224 40.4224 0 0 0-51.2-0.0512L371.5584 481.28c-17.3056 14.1312-19.9168 39.5776-5.7856 56.8832a40.45824 40.45824 0 0 0 56.8832 5.7856l48.9984-39.9872v381.0304c0 22.3232 18.1248 40.448 40.448 40.448s40.448-18.1248 40.448-40.448V508.7744l48.896 34.9696a40.37632 40.37632 0 0 0 25.6 9.1648c11.7248 0 23.296-5.0688 31.2832-14.7968a40.25344 40.25344 0 0 0-5.5296-56.8832z" fill="#80B7F9" p-id="3379"></path><path d="M552.6016 769.1776V508.7744l48.896 34.9696a40.37632 40.37632 0 0 0 25.6 9.1648c11.7248 0 23.296-5.0688 31.2832-14.7968 14.1824-17.2544 11.6224-42.752-5.632-56.9344l-117.8112-91.4432a40.4224 40.4224 0 0 0-51.2-0.0512L371.5584 481.28c-17.3056 14.1312-19.9168 39.5776-5.7856 56.8832a40.45824 40.45824 0 0 0 56.8832 5.7856l48.9984-39.9872v265.216h80.9472z" fill="#3E8BF8" p-id="3380"></path></svg>