<?xml version="1.0" standalone="no"?><!DOCTYPE svg PUBLIC "-//W3C//DTD SVG 1.1//EN" "http://www.w3.org/Graphics/SVG/1.1/DTD/svg11.dtd"><svg t="1724987973420" class="icon" viewBox="0 0 1024 1024" version="1.1" xmlns="http://www.w3.org/2000/svg" p-id="59890" xmlns:xlink="http://www.w3.org/1999/xlink" width="300" height="300"><path d="M320.512 512.512C320.512 617.984 406.016 704 512 704s191.488-85.504 191.488-191.488c0-105.472-85.504-191.488-191.488-191.488-105.472 0-191.488 86.016-191.488 191.488z" fill="#FFFFFF" p-id="59891"></path><path d="M452.608 465.408c38.4 39.424 101.376 40.448 141.312 2.048 1.024-0.512 1.536-1.536 2.56-2.56 39.424-40.96 39.424-105.984 0-146.944-28.672-29.696-72.704-38.4-110.592-22.528-53.248 23.552-77.312 85.504-53.76 138.752 5.12 11.776 11.776 22.528 20.48 31.232z m167.936 54.272h-192c-48.64 1.024-87.04 41.472-86.016 89.6 1.024 47.104 38.912 84.992 86.016 86.016h191.488c48.64-1.024 87.04-41.472 85.504-90.112-1.024-46.592-38.4-84.48-84.992-85.504z" fill="#FFFFFF" p-id="59892"></path><path d="M630.272 98.304c-72.704-25.6-151.552-25.6-224.256 0l-230.4 81.92c-24.064 8.704-39.936 31.744-39.936 57.344v429.568s55.808 180.736 382.464 295.424C844.8 847.872 900.608 667.136 900.608 667.136v-430.08c0-25.088-14.848-47.616-37.376-57.344l-232.96-81.408z" fill="#FF5555" opacity=".9" p-id="59893"></path><path d="M846.336 630.784c-26.624-9.728-55.296-9.728-81.92 0l-83.968 31.232c-8.704 3.584-14.848 12.288-14.848 22.016v164.864s20.48 69.12 139.776 113.152c119.296-44.032 139.776-113.152 139.776-113.152V684.032c0-9.216-5.12-17.92-13.824-22.016l-84.992-31.232z" fill="#FDC65D" opacity=".7" p-id="59894"></path><path d="M453.12 449.536c38.912 39.936 102.912 40.96 142.848 2.048l2.56-2.56c39.936-41.472 39.936-107.52 0-148.992-29.184-29.696-73.216-38.912-111.616-22.528-53.76 23.552-78.336 86.528-54.272 140.288 4.096 12.288 11.264 23.04 20.48 31.744z m169.472 54.784H428.544c-49.152 1.024-88.064 41.984-87.04 91.136 1.024 47.616 39.424 86.016 87.04 87.04h194.048c49.152-1.024 88.064-41.984 86.528-91.136-1.024-47.616-38.912-85.504-86.528-87.04z" fill="#FFFFFF" p-id="59895"></path></svg>