<?xml version="1.0" standalone="no"?><!DOCTYPE svg PUBLIC "-//W3C//DTD SVG 1.1//EN" "http://www.w3.org/Graphics/SVG/1.1/DTD/svg11.dtd"><svg t="1726030548305" class="icon" viewBox="0 0 1024 1024" version="1.1" xmlns="http://www.w3.org/2000/svg" p-id="43318" xmlns:xlink="http://www.w3.org/1999/xlink" width="300" height="300"><path d="M102.194648 787.043179l410.350818 236.924735 0.417121-157.222536L102.611769 629.820643z" fill="#296DCC" p-id="43319"></path><path d="M166.367112 757.235069L294.712039 834.242025v-51.33797L166.367112 705.897098z" fill="#1A5EBD" p-id="43320"></path><path d="M209.940214 732.079464L294.712039 783.0324v51.33797l-128.344927-77.006956z" fill="#3F82E0" p-id="43321"></path><path d="M512.994673 866.777464l-0.449207 157.222536 407.687661-236.924735 0.449207-157.222536z" fill="#1A5EBD" p-id="43322"></path><path d="M102.643855 629.852729l410.350818 236.892649 407.687661-236.924735-410.350818-236.892649z" fill="#3F82E0" p-id="43323"></path><path d="M102.740114 590.579182l410.350818 236.892649 0.449207-157.222536L103.189321 433.420818z" fill="#E1E7F0" p-id="43324"></path><path d="M513.540139 670.345554l407.687661-236.924736-0.449208 157.222536-407.848091 236.860563z" fill="#ABBBD1" p-id="43325"></path><path d="M103.189321 433.420818l410.350818 236.924736 407.687661-236.956822-410.350818-236.892649z" fill="#C5D1E0" p-id="43326"></path><path d="M103.317666 394.115185l410.382904 236.892649 0.449208-157.222536L103.79896 236.892649z" fill="#E1E7F0" p-id="43327"></path><path d="M166.367112 513.379708l128.344927 77.006956V641.724635l-128.344927-77.006956z m0-192.517391l128.344927 77.006957V449.207244l-128.344927-77.006956z" fill="#1A5EBD" p-id="43328"></path><path d="M514.085605 473.84947l-0.449207 157.222536 407.719747-236.924735 0.449207-155.618224v-1.540139z" fill="#ABBBD1" p-id="43329"></path><path d="M511.422448 0L103.734787 236.924735l410.350818 236.892649 407.687661-236.892649z" fill="#C5D1E0" p-id="43330"></path><path d="M209.940214 539.562073L294.712039 590.515009v51.337971l-128.344927-77.006956 43.573102-24.995175z m0-192.51739L294.712039 397.997619v51.33797l-128.344927-77.006956 43.573102-24.995174z" fill="#3F82E0" p-id="43331"></path></svg>