<?xml version="1.0" standalone="no"?><!DOCTYPE svg PUBLIC "-//W3C//DTD SVG 1.1//EN" "http://www.w3.org/Graphics/SVG/1.1/DTD/svg11.dtd"><svg t="1725963519657" class="icon" viewBox="0 0 1024 1024" version="1.1" xmlns="http://www.w3.org/2000/svg" p-id="3547" xmlns:xlink="http://www.w3.org/1999/xlink" width="300" height="300"><path d="M814.2848 377.9584c-5.2736-160.6656-137.0624-289.28-299.008-289.28s-293.7344 128.6144-299.008 289.28c-100.864 3.328-181.6576 86.1184-181.6576 187.8528 0 103.8336 84.1728 188.0064 188.0064 188.0064h585.3696c103.8336 0 188.0064-84.1728 188.0064-188.0064 0-101.7344-80.7936-184.5248-181.7088-187.8528z" fill="#80B7F9" p-id="3548"></path><path d="M655.9744 840.1408l-117.8112 91.4432a40.4224 40.4224 0 0 1-51.2 0.0512l-112.2304-91.5456c-17.3056-14.1312-19.9168-39.5776-5.7856-56.8832a40.45824 40.45824 0 0 1 56.8832-5.7856l48.9984 39.9872V436.3776c0-22.3232 18.1248-40.448 40.448-40.448s40.448 18.1248 40.448 40.448v376.2176l48.896-34.9696a40.37632 40.37632 0 0 1 25.6-9.1648c11.7248 0 23.296 5.0688 31.2832 14.7968 14.2336 17.2544 11.7248 42.752-5.5296 56.8832z" fill="#80B7F9" p-id="3549"></path><path d="M515.328 395.9296c-22.3232 0-40.448 18.1248-40.448 40.448v317.44h80.896v-317.44c0-22.3232-18.1248-40.448-40.448-40.448z" fill="#3E8BF8" p-id="3550"></path></svg>
