<?xml version="1.0" standalone="no"?><!DOCTYPE svg PUBLIC "-//W3C//DTD SVG 1.1//EN" "http://www.w3.org/Graphics/SVG/1.1/DTD/svg11.dtd"><svg t="1725118043435" class="icon" viewBox="0 0 1024 1024" version="1.1" xmlns="http://www.w3.org/2000/svg" p-id="104828" xmlns:xlink="http://www.w3.org/1999/xlink" width="300" height="300"><path d="M521.3184 977.066667l374.126933-227.114667a17.066667 17.066667 0 0 0 8.2176-14.592V665.429333a17.066667 17.066667 0 0 0-8.4736-14.7456L521.0624 432.554667a17.066667 17.066667 0 0 0-17.2032 0l-373.5808 218.112a17.066667 17.066667 0 0 0-8.456533 14.7456v69.947733a17.066667 17.066667 0 0 0 8.192 14.592l373.589333 227.089067a17.066667 17.066667 0 0 0 17.7152 0.008533z" fill="#EFF3FF" p-id="104829"></path><path d="M905.275733 665.6v76.8l-392.541866 239.5904v0.452267l-0.366934-0.2304-0.366933 0.2304v-0.452267L119.466667 742.4v-76.8l392.900266 239.812267L905.275733 665.6z" fill="#96B1FB" p-id="104830"></path><path d="M586.1376 384l82.1248 46.813867 17.604267 26.171733-39.330134 35.729067-13.858133 197.768533L621.7216 793.6l-82.133333-46.813867v-149.930666L486.4 564.616533z" fill="#C2D2FF" p-id="104831"></path><path d="M668.270933 430.813867L768 503.799467l-53.188267 28.706133V737.28L621.7216 793.6V582.741333l-53.188267 28.6976z" fill="#5A86FB" p-id="104832"></path><path d="M657.066667 222.327467L288.699733 534.5024a6.510933 6.510933 0 0 1-7.722666 0.494933c-67.968-43.4176-103.637333-67.208533-107.0336-71.389866-5.188267-6.4-21.888-54.6304 0-102.4512 8.968533-19.592533 25.156267-44.663467 47.889066-59.9552 11.374933-7.645867 32.443733-17.262933 63.214934-28.842667 8.209067-52.3008 18.8928-91.281067 32.068266-116.9408 19.7632-38.493867 32.119467-58.752 67.217067-77.7728C399.249067 69.563733 420.343467 68.266667 434.807467 68.266667c14.574933 0 101.333333 47.778133 116.48 57.557333 10.094933 6.519467 13.627733 16.384 10.589866 29.5936l65.877334 32.017067L657.066667 222.336z" fill="#C2D2FF" p-id="104833"></path><path d="M285.047467 272.366933l87.978666 54.357334L285.038933 537.6a5934.8992 5934.8992 0 0 1-73.156266-47.5904c-16.128-10.752-28.782933-19.549867-37.947734-26.402133-18.005333-37.828267-15.419733-76.612267 7.7312-116.360534 23.159467-39.748267 57.617067-64.708267 103.3728-74.88z" fill="#96B1FB" p-id="104834"></path><path d="M288.366933 535.637333l316.928-187.050666c28.245333-24.8576 45.056-54.826667 50.432-89.898667 8.046933-52.608-22.0416-71.867733-39.406933-75.5456-11.5712-2.4576-22.8096 0.878933-33.706667 9.992533-1.408-46.890667-21.998933-72.4992-61.755733-76.817066-59.639467-6.468267-99.029333 55.415467-119.022933 89.762133-13.3376 22.894933-22.9376 63.112533-28.817067 120.644267-40.840533 12.526933-73.2672 33.2288-97.28 62.1056-36.010667 43.3152-34.389333 86.272-21.0944 113.066666 7.936 15.982933 16.896 27.204267 26.871467 33.646934a6.493867 6.493867 0 0 0 6.852266 0.093866z" fill="#4B7AFA" p-id="104835"></path></svg>