<?xml version="1.0" standalone="no"?><!DOCTYPE svg PUBLIC "-//W3C//DTD SVG 1.1//EN" "http://www.w3.org/Graphics/SVG/1.1/DTD/svg11.dtd"><svg t="1724724104137" class="icon" viewBox="0 0 1024 1024" version="1.1" xmlns="http://www.w3.org/2000/svg" p-id="8201" xmlns:xlink="http://www.w3.org/1999/xlink" width="300" height="300"><path d="M932.864 109.568H91.136c-24.064 0-43.52 18.944-43.52 43.008V276.48h928.768V152.576c0-23.552-19.456-43.008-43.52-43.008zM147.968 238.08c-23.04 0-41.472-17.92-41.472-40.96 0-22.528 18.944-40.96 41.472-40.96 23.04 0 41.472 18.944 41.472 40.96s-18.944 40.96-41.472 40.96z m124.416 0c-23.04 0-41.472-17.92-41.472-40.96 0-22.528 18.944-40.96 41.472-40.96 23.04 0 41.472 18.944 41.472 40.96 0.512 22.016-18.432 40.96-41.472 40.96z m122.368 0c-21.504 0-38.912-17.92-38.912-40.96 0-22.528 17.408-40.96 38.912-40.96s38.912 18.944 38.912 40.96-17.408 40.96-38.912 40.96zM47.616 871.424c0 23.04 19.456 43.008 43.52 43.008h841.728c24.064 0 43.52-18.944 43.52-43.008v-563.2H47.616v563.2z m580.096-411.136c6.656-6.656 17.408-6.656 24.064 0l71.168 71.168c6.656 6.656 6.656 17.408 0 24.064l-71.168 71.168c-3.072 3.072-7.68 5.12-12.288 5.12-4.608 0-9.216-1.536-12.288-5.12-3.072-3.072-5.12-7.68-5.12-12.288 0-4.608 1.536-9.216 5.12-12.288l58.88-58.88-58.88-58.88c-6.144-6.656-6.144-17.408 0.512-24.064zM418.816 745.472l167.936-357.888c2.56-5.632 9.216-8.192 14.848-5.632 5.632 2.56 8.192 9.216 5.632 14.848L439.296 754.688c-2.048 4.096-6.144 6.656-10.24 6.656-1.536 0-3.072-0.512-4.608-1.024-5.632-2.56-8.192-9.216-5.632-14.848zM299.008 602.624l71.168-71.168c3.072-3.072 7.68-5.12 12.288-5.12 4.608 0 8.704 1.536 12.288 5.12 6.656 6.656 6.656 17.408 0 24.064l-58.88 58.88 58.368 59.392c6.656 6.656 6.656 17.408 0 24.064-3.072 3.072-7.68 5.12-12.288 5.12s-9.216-1.536-12.288-5.12L298.496 627.2c-6.144-6.656-6.144-17.408 0.512-24.576z" p-id="8202"></path></svg>