<?xml version="1.0" standalone="no"?><!DOCTYPE svg PUBLIC "-//W3C//DTD SVG 1.1//EN" "http://www.w3.org/Graphics/SVG/1.1/DTD/svg11.dtd"><svg t="1721910412185" class="icon" viewBox="0 0 1181 1024" version="1.1" xmlns="http://www.w3.org/2000/svg" p-id="63687" xmlns:xlink="http://www.w3.org/1999/xlink" width="299.86328125" height="260"><path d="M0 40.684308c1.496615-13.705846 12.760615-25.521231 27.096615-24.221539 374.390154-0.236308 748.780308 0.078769 1123.170462-0.118154 11.736615-1.102769 24.654769 3.859692 28.868923 15.714462-1.654154 220.356923-0.275692 440.792615-0.708923 661.188923 0.945231 34.067692-2.441846 68.292923 2.363077 102.163692-4.135385 7.010462-8.546462 15.714462-17.408 17.289846-13.469538 2.284308-27.214769 0.984615-40.763077 1.220924-123.116308-0.118154-246.193231 0-369.270154-0.039385-0.118154 10.200615-0.196923 20.401231-0.433231 30.601846-108.150154 0.039385-216.300308 0-324.450461 0.039385-0.551385-10.24-1.063385-20.48-1.929846-30.680616-122.446769 0.078769-244.932923-0.039385-367.419077 0.07877-13.587692-0.236308-27.332923 1.102769-40.802462-1.181539-9.846154-1.811692-14.572308-11.500308-18.313846-19.652923V40.684308m824.044308 28.908307c-19.495385-0.748308-39.030154-0.393846-58.564923-0.590769l-0.945231 0.945231c-236.228923-0.157538-472.497231 0-708.726154-0.039385v653.705846c21.228308 0.078769 42.496-0.354462 63.763692 0.354462 19.534769 1.102769 39.069538 0.669538 58.643693 0.787692l1.063384-1.063384c315.904-0.236308 631.847385-0.039385 947.751385-0.118154-0.118154-185.107692 0.315077-370.254769-0.196923-555.362462 0.748308-32.925538 0.078769-65.851077 0.354461-98.776615-101.060923-0.118154-202.082462 1.142154-303.143384 0.157538m-244.184616 676.036923c-19.101538 7.246769-23.000615 35.761231-6.734769 48.009847 15.596308 14.217846 43.362462 2.993231 45.292308-17.801847 4.214154-20.676923-19.456-39.502769-38.557539-30.208z" fill="#406376" p-id="63688"></path><path d="M705.654154 389.868308c4.804923-9.373538 5.474462-25.757538 18.786461-26.584616 12.603077-1.417846 25.363692-1.181538 38.006154 0.157539 4.489846 7.758769 8.192 15.990154 11.972923 24.142769 12.169846 4.608 24.221538 9.531077 36.155077 14.729846 8.979692-3.150769 17.959385-10.948923 27.687385-8.940308 12.524308 7.758769 24.024615 18.628923 30.523077 31.980308-1.378462 8.979692-6.380308 16.777846-10.200616 24.851692 5.12 12.288 9.846154 24.733538 14.178462 37.336616 8.625231 2.599385 17.565538 4.608 25.678769 8.664615 5.435077 15.438769 5.238154 33.476923 0.984616 49.191385-6.971077 5.710769-16.384 7.049846-24.615385 10.161231-4.883692 12.406154-10.436923 24.536615-15.084308 37.060923 0.315077 0.827077 1.024 2.56 1.339077 3.387077 2.835692 7.168 7.128615 13.981538 8.113231 21.740307-5.907692 12.681846-17.053538 22.331077-28.002462 30.680616-8.704 6.301538-18.313846-3.072-27.05723-5.080616-0.866462-0.315077-2.638769-0.945231-3.544616-1.220923-12.288 4.726154-24.221538 10.476308-36.391384 15.556923-5.277538 11.618462-8.782769 30.562462-25.639385 28.199385-11.382154-0.748308-28.790154 4.056615-34.500923-9.097846-3.426462-6.931692-5.671385-14.375385-8.270769-21.661539-11.972923-4.765538-23.867077-9.728-35.643077-14.966154-8.979692 3.859692-17.644308 10.121846-27.766154 10.161231-12.839385-7.995077-24.694154-18.904615-31.822769-32.374154 0.708923-9.728 6.380308-18.156308 10.279384-26.860307a672.492308 672.492308 0 0 1-15.714461-35.288616c-9.058462-3.544615-18.235077-6.931692-26.939077-11.303384-1.063385-14.060308-3.780923-28.593231-0.354462-42.456616 6.419692-9.531077 19.574154-10.673231 29.459693-14.966154 4.450462-11.894154 9.294769-23.630769 14.532923-35.209846-4.174769-10.397538-16.580923-23.079385-6.892308-33.792 7.916308-9.570462 16.738462-18.825846 27.490462-25.166769 10.24 0.315077 18.786462 6.813538 27.726769 11.027692 11.657846-5.080615 23.552-9.728 35.524923-14.060307m20.873846 38.124307c-44.701538 6.144-81.014154 46.907077-81.762462 92.041847-1.575385 41.905231 27.726769 82.550154 68.096 94.089846 43.874462 14.769231 95.586462-9.255385 114.25477-51.27877 15.517538-31.586462 10.476308-71.325538-11.264-98.776615-20.558769-26.742154-55.926154-41.314462-89.324308-36.076308zM795.293538 988.356923c16.068923 0.118154 32.098462-0.236308 48.167385-1.142154-0.708923 6.144-0.669538 12.839385-3.977846 18.353231-12.996923 3.584-26.702769 1.772308-40.014769 2.126769-137.924923-0.157538-275.849846-0.078769-413.735385-0.039384-13.981538-0.275692-28.16 1.181538-41.984-1.260308-7.443692-2.914462-4.923077-12.484923-6.340923-18.668308 152.615385 1.339077 305.270154 0.039385 457.885538 0.630154z" fill="#406376" p-id="63689"></path><path d="M1179.136 32.059077l2.402462 5.513846v764.652308l-0.748308-6.813539c-4.804923-33.870769-1.417846-68.096-2.363077-102.163692 0.433231-220.396308-0.945231-440.832 0.708923-661.188923z" fill="#344F5F" opacity=".79" p-id="63690"></path><path d="M824.044308 69.592615c101.060923 0.984615 202.082462-0.275692 303.143384-0.157538-22.646154 1.339077-45.331692-0.669538-67.899077 1.024-6.301538-0.039385-11.067077 4.371692-15.399384 8.310154-93.617231 95.074462-187.707077 189.715692-281.442462 284.672-12.642462-1.339077-25.403077-1.575385-38.006154-0.157539-13.312 0.827077-13.981538 17.211077-18.786461 26.584616-11.972923 4.332308-23.867077 8.979692-35.524923 14.060307-8.940308-4.214154-17.486769-10.712615-27.726769-11.027692-10.752 6.340923-19.574154 15.596308-27.490462 25.166769-9.688615 10.712615 2.717538 23.394462 6.892308 33.792-5.238154 11.579077-10.082462 23.315692-14.532923 35.209846-9.885538 4.292923-23.04 5.435077-29.459693 14.966154-3.426462 13.863385-0.708923 28.396308 0.354462 42.456616 0.196923 2.126769 0.512 6.419692 0.669538 8.546461-13.154462-12.603077-11.106462-32.649846-9.097846-49.073231 1.299692-12.406154 15.596308-14.926769 24.182154-20.91323 11.933538-5.198769 14.060308-19.456 18.944-30.089846-4.096-11.815385-14.454154-26.033231-4.962462-37.769847 8.940308-11.776 19.456-24.260923 33.87077-29.10523 11.933538 0.866462 23.236923 5.198769 34.658461 8.428307-26.112-20.046769-57.344-31.389538-88.812307-40.014769 25.718154-13.390769 50.136615-31.232 64.827076-56.832 13.705846-22.134154 19.613538-48.324923 20.007385-74.161231 50.530462-51.278769 101.257846-102.4 151.591385-153.915077zM55.808 69.907692c236.228923 0.039385 472.497231-0.118154 708.726154 0.039385-34.225231 34.816-68.489846 69.592615-102.793846 104.329846-16.305231-37.218462-48.994462-67.190154-88.339693-78.139077-57.186462-17.447385-123.470769 8.349538-154.03323 59.628308-32.846769 51.2-24.536615 123.785846 18.550153 166.596923 12.918154 13.548308 29.341538 22.921846 45.528616 32.019692-56.32 13.705846-108.662154 45.213538-143.793231 91.726769-23.630769 29.853538-38.478769 65.575385-47.222154 102.439385-57.265231 58.801231-115.121231 117.090462-172.859077 175.419077-21.267692-0.708923-42.535385-0.275692-63.763692-0.354462V69.907692z" fill="#FFFFFF" p-id="63691"></path><path d="M1125.454769 314.801231c0.472615-48.876308-0.669538-97.752615 1.378462-146.589539 0.512 185.107692 0.078769 370.254769 0.196923 555.362462-315.904 0.078769-631.847385-0.118154-947.751385 0.118154 36.667077-37.218462 73.609846-74.200615 109.922462-111.734154 7.995077 15.714462 22.488615 26.978462 39.148307 32.334769 42.220308 14.414769 86.764308 20.598154 130.993231 25.166769-15.556923 15.950769-31.310769 31.704615-46.867692 47.655385 108.268308 1.457231 216.536615 2.244923 324.804923 3.623385 25.796923-25.6 51.042462-51.751385 76.839385-77.39077 8.743385 2.008615 18.353231 11.382154 27.05723 5.080616 10.948923-8.349538 22.094769-17.998769 28.002462-30.680616-0.984615-7.758769-5.277538-14.572308-8.113231-21.740307 79.163077-80.620308 158.72-160.807385 238.237539-241.033847 10.673231-11.776 27.884308-22.055385 26.151384-40.172307z" fill="#FFFFFF" p-id="63692"></path><path d="M764.534154 69.947077l0.945231-0.945231c19.534769 0.196923 39.069538-0.157538 58.564923 0.590769-50.333538 51.515077-101.060923 102.636308-151.591385 153.915077-1.142154-16.817231-4.489846-33.555692-10.712615-49.230769 34.304-34.737231 68.568615-69.513846 102.793846-104.329846zM1043.889231 78.769231c4.332308-3.938462 9.097846-8.349538 15.399384-8.310154 22.567385-1.693538 45.252923 0.315077 67.899077-1.024-0.275692 32.925538 0.393846 65.851077-0.354461 98.776615-2.048 48.836923-0.905846 97.713231-1.378462 146.589539 1.732923 18.116923-15.478154 28.396308-26.151384 40.172307-79.517538 80.226462-159.074462 160.413538-238.237539 241.033847-0.315077-0.827077-1.024-2.56-1.339077-3.387077 4.647385-12.524308 10.200615-24.654769 15.084308-37.060923 8.231385-3.111385 17.644308-4.450462 24.615385-10.161231 4.253538-15.714462 4.450462-33.752615-0.984616-49.191385-8.113231-4.056615-17.053538-6.065231-25.678769-8.664615-4.332308-12.603077-9.058462-25.048615-14.178462-37.336616 3.820308-8.073846 8.822154-15.872 10.200616-24.851692-6.498462-13.351385-17.998769-24.221538-30.523077-31.980308-9.728-2.008615-18.707692 5.789538-27.687385 8.940308-11.933538-5.198769-23.985231-10.121846-36.155077-14.729846-3.780923-8.152615-7.483077-16.384-11.972923-24.142769 93.735385-94.956308 187.825231-189.597538 281.442462-284.672z" fill="#FFDE91" p-id="63693"></path><path d="M726.528 427.992615c33.398154-5.238154 68.765538 9.334154 89.324308 36.076308 21.740308 27.451077 26.781538 67.190154 11.264 98.776615-18.668308 42.023385-70.380308 66.048-114.25477 51.27877-40.369231-11.539692-69.671385-52.184615-68.096-94.089846 0.748308-45.134769 37.060923-85.897846 81.762462-92.041847m-8.152615 6.73477c-48.088615 11.027692-80.384 65.732923-65.024 112.955077 11.618462 43.165538 58.446769 73.097846 102.518153 64.43323 48.718769-7.483077 84.795077-59.273846 73.491693-107.52-8.940308-48.955077-62.818462-83.652923-110.985846-69.868307z" fill="#FFDE91" p-id="63694"></path><path d="M726.094769 490.417231c23.473231-11.027692 52.420923 12.051692 46.907077 37.415384-2.993231 24.615385-35.446154 37.454769-54.547692 21.661539-20.992-14.414769-16.344615-50.451692 7.640615-59.076923zM578.166154 544.492308c8.704 4.371692 17.880615 7.758769 26.939077 11.303384 4.883692 11.933538 10.161231 23.670154 15.714461 35.288616-3.899077 8.704-9.570462 17.132308-10.279384 26.860307 7.128615 13.469538 18.983385 24.379077 31.822769 32.374154 10.121846-0.039385 18.786462-6.301538 27.766154-10.161231 11.776 5.238154 23.670154 10.200615 35.643077 14.966154 2.599385 7.286154 4.844308 14.729846 8.270769 21.661539 5.710769 13.154462 23.118769 8.349538 34.500923 9.097846 16.856615 2.363077 20.361846-16.580923 25.639385-28.199385 12.169846-5.080615 24.103385-10.830769 36.391384-15.556923 0.905846 0.275692 2.678154 0.905846 3.544616 1.220923-25.796923 25.639385-51.042462 51.790769-76.839385 77.39077-108.268308-1.378462-216.536615-2.166154-324.804923-3.623385 15.556923-15.950769 31.310769-31.704615 46.867692-47.655385 76.918154 7.758769 154.820923 2.363077 230.557539-12.484923-6.301538-2.796308-12.642462-5.513846-18.983385-8.231384-11.539692 4.017231-25.324308 14.060308-37.021538 5.12-11.972923-8.704-23.591385-19.337846-29.971693-32.925539-1.929846-10.633846 4.765538-20.519385 8.073846-30.247384-4.096-9.609846-8.310154-19.140923-12.563692-28.672-6.892308-2.914462-13.863385-5.710769-20.598154-8.979693-0.157538-2.126769-0.472615-6.419692-0.669538-8.546461zM119.571692 723.968c57.737846-58.328615 115.593846-116.617846 172.859077-175.419077-3.662769 20.873846-4.962462 42.220308-3.229538 63.409231-36.312615 37.533538-73.255385 74.515692-109.922462 111.734154l-1.063384 1.063384c-19.574154-0.118154-39.108923 0.315077-58.643693-0.787692z" fill="#FFDE91" p-id="63695"></path><path d="M419.367385 155.766154c30.562462-51.278769 96.846769-77.075692 154.03323-59.628308 39.345231 10.948923 72.034462 40.920615 88.339693 78.139077 6.222769 15.675077 9.570462 32.413538 10.712615 49.230769-0.393846 25.836308-6.301538 52.027077-20.007385 74.161231-14.690462 25.6-39.108923 43.441231-64.827076 56.832 31.468308 8.625231 62.700308 19.968 88.812307 40.014769-11.421538-3.229538-22.724923-7.561846-34.658461-8.428307-14.414769 4.844308-24.930462 17.329231-33.87077 29.10523-9.491692 11.736615 0.866462 25.954462 4.962462 37.769847-4.883692 10.633846-7.010462 24.891077-18.944 30.089846-8.585846 5.986462-22.882462 8.507077-24.182154 20.91323-2.008615 16.423385-4.056615 36.470154 9.097846 49.073231 6.734769 3.268923 13.705846 6.065231 20.598154 8.979693 4.253538 9.531077 8.467692 19.062154 12.563692 28.672-3.308308 9.728-10.003692 19.613538-8.073846 30.247384 6.380308 13.587692 17.998769 24.221538 29.971693 32.925539 11.697231 8.940308 25.481846-1.102769 37.021538-5.12 6.340923 2.717538 12.681846 5.435077 18.983385 8.231384-75.736615 14.848-153.639385 20.243692-230.557539 12.484923-44.228923-4.568615-88.772923-10.752-130.993231-25.166769-16.659692-5.356308-31.153231-16.620308-39.148307-32.334769-1.732923-21.188923-0.433231-42.535385 3.229538-63.409231 8.743385-36.864 23.591385-72.585846 47.222154-102.439385 35.131077-46.513231 87.473231-78.020923 143.793231-91.726769-16.187077-9.097846-32.610462-18.471385-45.528616-32.019692-43.086769-42.811077-51.396923-115.396923-18.550153-166.596923zM426.535385 813.843692c0.866462 10.200615 1.378462 20.440615 1.929846 30.680616 108.150154-0.039385 216.300308 0 324.450461-0.039385-0.433231 21.070769-0.157538 42.141538-0.236307 63.251692-108.347077-0.275692-216.694154-0.275692-325.041231 0 0.512-31.310769-0.354462-62.582154-1.102769-93.892923z" fill="#CBD9EA" p-id="63696"></path><path d="M718.375385 434.727385c48.167385-13.784615 102.045538 20.913231 110.985846 69.868307 11.303385 48.246154-24.772923 100.036923-73.491693 107.52-44.071385 8.664615-90.899692-21.267692-102.518153-64.43323-15.36-47.222154 16.935385-101.927385 65.024-112.955077m7.719384 55.689846c-23.985231 8.625231-28.632615 44.662154-7.640615 59.076923 19.101538 15.793231 51.554462 2.953846 54.547692-21.661539 5.513846-25.363692-23.433846-48.443077-46.907077-37.415384zM579.859692 745.629538c19.101538-9.294769 42.771692 9.531077 38.557539 30.208-1.929846 20.795077-29.696 32.019692-45.292308 17.801847-16.265846-12.248615-12.366769-40.763077 6.734769-48.009847z" fill="#00A0E9" p-id="63697"></path><path d="M337.723077 980.716308c29.577846-24.812308 60.179692-48.403692 89.915077-72.979693 108.347077-0.275692 216.694154-0.275692 325.041231 0 29.617231 24.300308 59.746462 47.931077 89.363692 72.27077l1.417846 7.207384c-16.068923 0.905846-32.098462 1.260308-48.167385 1.142154-152.615385-0.590769-305.270154 0.708923-457.885538-0.630154l0.315077-7.010461z" fill="#9DBED4" p-id="63698"></path></svg>