<?xml version="1.0" standalone="no"?><!DOCTYPE svg PUBLIC "-//W3C//DTD SVG 1.1//EN" "http://www.w3.org/Graphics/SVG/1.1/DTD/svg11.dtd"><svg t="1721965966029" class="icon" viewBox="0 0 1024 1024" version="1.1" xmlns="http://www.w3.org/2000/svg" p-id="95382" xmlns:xlink="http://www.w3.org/1999/xlink" width="260" height="260"><path d="M606.583475 1022.681253H406.495888a25.873836 25.873836 0 0 1-29.657757-27.356724l-4.602065-53.99757-4.244127-49.702309a34.10642 34.10642 0 0 0-20.76043-33.134873 358.347511 358.347511 0 0 1-44.333232-24.084143c-8.232584-5.113406-16.720838-10.226813-25.567031-14.828878a17.845788 17.845788 0 0 0-9.613204-2.403301 21.987647 21.987647 0 0 0-6.442892 0.971547 2189.049221 2189.049221 0 0 0-79.769138 34.668894l-25.567031 11.402896a44.691171 44.691171 0 0 1-17.896922 4.6532c-9.613204 0-17.334447-5.420211-25.055691-17.590117-16.311766-27.407858-33.237141-55.582726-49.651174-82.837182s-33.339409-55.429324-49.651175-82.837181c-11.760834-18.510531-8.948461-30.220231 10.226812-43.208283 27.919198-19.686614 61.360875-42.952613 96.336574-66.474282a13.806197 13.806197 0 0 0 7.414439-17.283313 849.899255 849.899255 0 0 1 0-86.416566 17.692386 17.692386 0 0 0-7.209903-17.129911c-16.056096-11.300628-32.367862-22.498988-48.117152-33.288274s-33.134873-22.65239-49.702309-34.36209c-18.305994-13.294856-20.453625-23.470535-8.897327-41.725396a6625.082556 6625.082556 0 0 1 103.751013-170.020758 48.679628 48.679628 0 0 1 17.74352-19.021871l1.585156-1.124949 3.425982 0.971547a63.866444 63.866444 0 0 1 17.334447 6.289489c16.925375 7.158769 34.10642 14.777744 50.72499 22.14105s34.36209 15.340219 51.492001 22.498987a21.425172 21.425172 0 0 0 9.510936 2.505569A25.567031 25.567031 0 0 0 283.467333 204.536251c12.630113-7.92578 25.567031-15.340219 37.788072-22.294452s25.209093-14.419806 37.788073-22.345585a19.175273 19.175273 0 0 0 8.897327-14.419806l2.607837-20.453625q5.113406-40.90725 10.738153-84.83141a71.025213 71.025213 0 0 1 2.965776-17.129911A24.033009 24.033009 0 0 1 410.944551 0h203.053363a24.28868 24.28868 0 0 1 26.691981 24.493216c4.244127 37.174464 7.158769 74.348927 9.971142 110.245039l0.409072 5.113406c0 9.868874 4.141859 14.164135 13.345991 20.146821 14.010733 7.209903 27.714662 15.340219 42.236735 23.521669 11.300628 6.54516 22.959194 13.294856 34.822297 19.686614a17.845788 17.845788 0 0 0 9.613204 2.403301 21.987647 21.987647 0 0 0 6.698562-1.073815 3461.980576 3461.980576 0 0 0 108.199677-50.418186 38.043743 38.043743 0 0 1 16.516302-4.448664 25.567031 25.567031 0 0 1 22.038781 14.522074c36.611989 59.366647 73.63305 121.136594 106.61452 175.645505 8.590523 13.806197 5.369077 25.567031-10.226812 37.532402l-1.227218 0.869279c-31.651985 22.396719-64.377785 45.509316-98.075132 66.83222a19.584346 19.584346 0 0 0-8.897327 18.715067 850.052657 850.052657 0 0 1 0 86.416566 16.61857 16.61857 0 0 0 7.414439 15.851559c17.385581 13.857331 34.36209 27.254455 51.134063 40.90725l44.742305 35.435906a26.947651 26.947651 0 0 1 8.897327 40.344775c-17.283313 29.248684-35.282503 59.008708-52.668085 87.746052-16.925375 27.970332-34.310956 56.75881-51.134062 85.08708a24.033009 24.033009 0 0 1-20.862698 13.499392 40.90725 40.90725 0 0 1-17.692386-5.113406 2378.756593 2378.756593 0 0 1-106.716788-44.640037 21.425172 21.425172 0 0 0-9.510936-2.607837 29.248684 29.248684 0 0 0-12.732382 4.039591c-25.567031 16.056096-52.463548 30.680438-78.54192 44.691171-3.01691 1.431754-5.982685 7.261037-7.414439 10.226812-2.147631 19.37981-3.937323 38.964156-5.727015 57.883759-1.89196 20.453625-3.835055 41.418591-6.187221 61.66768a26.43631 26.43631 0 0 1-29.146416 27.458992zM506.105042 313.963145a192.366344 192.366344 0 1 0 4.141859 384.630419 192.417478 192.417478 0 1 0-1.534022-384.579285z" fill="#A0ACC0" p-id="95383"></path><path d="M510.349169 748.960615a249.84103 249.84103 0 0 1-177.946538-70.61614 235.779163 235.779163 0 0 1-72.610369-172.833132 239.614217 239.614217 0 0 1 74.093257-172.781997A244.369685 244.369685 0 0 1 503.599473 263.493825h5.113406a256.539592 256.539592 0 0 1 177.895404 70.667274 235.625761 235.625761 0 0 1 72.610369 172.833132 242.937932 242.937932 0 0 1-248.869483 241.966384z m-4.550932-386.011038a143.686716 143.686716 0 0 0-100.785237 40.293641 151.714764 151.714764 0 0 0-41.520859 102.268125 138.880114 138.880114 0 0 0 41.520859 100.836372 149.771669 149.771669 0 0 0 105.336169 41.776529 143.175375 143.175375 0 0 0 146.652492-142.612901 137.652897 137.652897 0 0 0-43.003747-100.785237 149.669401 149.669401 0 0 0-106.716789-41.776529z" fill="#D1D7DD" p-id="95384"></path></svg>
