<?xml version="1.0" standalone="no"?><!DOCTYPE svg PUBLIC "-//W3C//DTD SVG 1.1//EN" "http://www.w3.org/Graphics/SVG/1.1/DTD/svg11.dtd"><svg t="1724144624787" class="icon" viewBox="0 0 1024 1024" version="1.1" xmlns="http://www.w3.org/2000/svg" p-id="6985" xmlns:xlink="http://www.w3.org/1999/xlink" width="300" height="300"><path d="M499.2512 682.8288h-58.0224l-39.1296-39.1296a25.6 25.6 0 0 0-36.1984 36.2112l2.9184 2.9184H256c-140.7744 0-256-113.0752-256-251.2384 0-129.856 98.1248-234.56 230.4-251.2512C281.6 79.8336 388.224 12.8 512 12.8c157.8496 0 285.8496 108.8768 315.7248 251.2384C934.4 272.4096 1024 364.544 1024 473.3824c0 117.2864-93.8752 209.4464-213.376 209.4464H571.6608l75.9296-75.9296a25.6 25.6 0 0 0-36.2112-36.1984l-112.128 112.128z" fill="currentColor" opacity=".3" p-id="6986"></path><path d="M472.7936 711.8464l-68.1344-68.1472a25.6 25.6 0 0 0-36.2112 36.2112l86.0032 85.9904a25.6 25.6 0 0 0 26.9952 5.9136c3.6352-1.216 7.0656-3.2768 9.9584-6.1824l158.7328-158.72a25.6 25.6 0 0 0-36.1984-36.224L472.7936 711.8592zM758.0672 425.6l30.592 2.2912V743.296C788.6464 859.904 543.9488 985.6 515.9168 985.6 485.3376 985.6 243.2 859.8912 243.2 743.3088V427.904l33.1392-2.2912s38.2336-2.2912 107.0464-22.8608c68.8128-22.848 114.688-48 114.688-48L515.9424 345.6l20.3904 9.1392s43.328 25.152 114.688 48c66.2784 22.8608 107.0592 22.8608 107.0592 22.8608z" fill="currentColor" p-id="6987"></path></svg>
