<?xml version="1.0" standalone="no"?><!DOCTYPE svg PUBLIC "-//W3C//DTD SVG 1.1//EN" "http://www.w3.org/Graphics/SVG/1.1/DTD/svg11.dtd"><svg t="1719799401850" class="icon" viewBox="0 0 1024 1024" version="1.1" xmlns="http://www.w3.org/2000/svg" p-id="1721" xmlns:xlink="http://www.w3.org/1999/xlink" width="200" height="200"><path d="M512 512m-512 0a512 512 0 1 0 1024 0 512 512 0 1 0-1024 0Z" fill="currentColor" opacity=".15" p-id="1722"></path><path d="M802.920727 653.963636h-36.072727v-261.294545a23.272727 23.272727 0 0 0-23.272727-23.272727h-392.145455V314.181818a23.272727 23.272727 0 0 1 23.272727-23.272727h428.218182a23.272727 23.272727 0 0 1 23.272728 23.272727v316.509091a23.272727 23.272727 0 0 1-23.272728 23.272727z" fill="currentColor" opacity=".5" p-id="1723"></path><path d="M721.675636 723.793455h-500.608a23.272727 23.272727 0 0 1-23.272727-23.272728v-278.225454a23.272727 23.272727 0 0 1 23.272727-23.272728h500.608a23.272727 23.272727 0 0 1 23.272728 23.272728v278.225454a23.272727 23.272727 0 0 1-23.272728 23.272728z m-118.411636-250.14691l-63.453091 168.087273-192.896 3.374546a15.266909 15.266909 0 0 0-15.243636 15.243636 14.382545 14.382545 0 0 0 1.454545 6.039273v0.104727a15.732364 15.732364 0 0 0 14.056727 8.541091h0.256l203.636364-3.607273a16 16 0 0 0 6.481455-1.489454 15.022545 15.022545 0 0 0 7.796363-8.331637l67.188364-178.036363 10.472727 21.736727a15.616 15.616 0 0 0 14.068364 8.634182 15.813818 15.813818 0 0 0 6.516363-1.396364 15.045818 15.045818 0 0 0 8.064-8.599273 14.394182 14.394182 0 0 0-0.570181-11.264l-26.298182-54.504727a14.813091 14.813091 0 0 0-3.490909-4.654545 15.348364 15.348364 0 0 0-5.248-3.083637 15.883636 15.883636 0 0 0-11.950546 0.546909l-56.215272 25.774546a15.127273 15.127273 0 0 0-8.017455 8.715636 14.254545 14.254545 0 0 0 0.674909 11.159273 15.685818 15.685818 0 0 0 14.033455 8.552727 15.848727 15.848727 0 0 0 6.632727-1.442909l22.027636-10.088727z m-281.181091-20.538181a54.132364 54.132364 0 0 0 0 108.218181h3.968a54.132364 54.132364 0 0 0 0-108.218181z" fill="currentColor" p-id="1724"></path></svg>
