<?xml version="1.0" standalone="no"?><!DOCTYPE svg PUBLIC "-//W3C//DTD SVG 1.1//EN" "http://www.w3.org/Graphics/SVG/1.1/DTD/svg11.dtd"><svg t="1719799585391" class="icon" viewBox="0 0 1024 1024" version="1.1" xmlns="http://www.w3.org/2000/svg" p-id="146391" xmlns:xlink="http://www.w3.org/1999/xlink" width="200" height="200"><path d="M512 512m-512 0a512 512 0 1 0 1024 0 512 512 0 1 0-1024 0Z" fill="currentColor" opacity=".15" p-id="146392"></path><path d="M672 608a64 64 0 1 1 0 128H352a64 64 0 1 1 0-128h320z m-256 48a16 16 0 1 0 0 32 16 16 0 0 0 0-32z m256 0h-64a16 16 0 1 0 0 32h64a16 16 0 1 0 0-32zM672 448a64 64 0 1 1 0 128H352a64 64 0 1 1 0-128h320z m-256 48a16 16 0 1 0 0 32 16 16 0 0 0 0-32z m-48 0a16 16 0 1 0 0 32 16 16 0 0 0 0-32z m304 0h-64a16 16 0 0 0 0 32h64a16 16 0 1 0 0-32zM672 288a64 64 0 1 1 0 128H352a64 64 0 1 1 0-128h320z m-256 48a16 16 0 1 0 0 32 16 16 0 0 0 0-32z m-48 0a16 16 0 1 0 0 32 16 16 0 0 0 0-32z m304 0h-64a16 16 0 0 0 0 32h64a16 16 0 1 0 0-32z" fill="currentColor" p-id="146393"></path></svg>
