<?xml version="1.0" standalone="no"?><!DOCTYPE svg PUBLIC "-//W3C//DTD SVG 1.1//EN" "http://www.w3.org/Graphics/SVG/1.1/DTD/svg11.dtd"><svg t="1719799459572" class="icon" viewBox="0 0 1024 1024" version="1.1" xmlns="http://www.w3.org/2000/svg" p-id="1881" xmlns:xlink="http://www.w3.org/1999/xlink" width="200" height="200"><path d="M512 512m-512 0a512 512 0 1 0 1024 0 512 512 0 1 0-1024 0Z" fill="currentColor" opacity=".15" p-id="1882"></path><path d="M529.815273 823.191273a289.745455 289.745455 0 0 1-205.614546-85.154909 292.654545 292.654545 0 0 1-31.138909-36.654546l62.336-36.980363a41.588364 41.588364 0 0 1 48.116364 4.130909l52.363636 44.578909a58.414545 58.414545 0 0 0 76.020364-0.197818l163.223273-140.544 50.90909 50.036363a3.025455 3.025455 0 0 0 2.071273 0.814546 2.850909 2.850909 0 0 0 2.862546-2.909091v-144.581818a2.734545 2.734545 0 0 0-0.837819-2.048 2.862545 2.862545 0 0 0-2.048-0.849455h-147.095272a2.944 2.944 0 0 0-2.094546 4.980364l61.672728 60.509091-139.636364 120.203636a41.565091 41.565091 0 0 1-54.050909 0.151273l-36.177455-30.813091a91.624727 91.624727 0 0 0-106.088727-9.076364l-59.136 35.060364a207.767273 207.767273 0 0 1-3.630545-8.238546 288.989091 288.989091 0 0 1-22.842182-113.175272v-5.376h285.277091v-285.335273H529.722182a290.734545 290.734545 0 1 1 0 581.480727z" fill="currentColor" p-id="1883"></path><path d="M420.549818 505.588364h-29.090909v-65.466182h-43.054545v65.466182h-29.230546v-121.320728h-43.054545v121.320728h-66.571637v-5.422546a290.536727 290.536727 0 0 1 290.746182-290.688h5.364364v296.052364h-41.890909v-97.745455h-43.112728v97.745455z" fill="currentColor" opacity=".5" p-id="1884"></path></svg>
