<?xml version="1.0" standalone="no"?><!DOCTYPE svg PUBLIC "-//W3C//DTD SVG 1.1//EN" "http://www.w3.org/Graphics/SVG/1.1/DTD/svg11.dtd"><svg t="1719799330936" class="icon" viewBox="0 0 1024 1024" version="1.1" xmlns="http://www.w3.org/2000/svg" p-id="1467" xmlns:xlink="http://www.w3.org/1999/xlink" width="200" height="200"><path d="M512 512m-512 0a512 512 0 1 0 1024 0 512 512 0 1 0-1024 0Z" fill="currentColor" opacity=".15" p-id="1468"></path><path d="M736.500364 624a140.8 140.8 0 0 0-86.109091-252.206545c-4.410182 0-8.750545 0.267636-13.044364 0.663272a200.215273 200.215273 0 0 1-65.256727 229.888c47.569455 18.408727 78.301091 47.173818 78.301091 79.569455 0 24.436364-17.384727 46.801455-46.289455 64.221091a270.941091 270.941091 0 0 0 46.289455 3.968c77.812364 0 140.881455-31.546182 140.881454-70.423273 0-22.690909-21.504-42.786909-54.772363-55.68" fill="currentColor" opacity=".5" p-id="1469"></path><path d="M434.036364 785.012364a326.027636 326.027636 0 0 1-142.324364-29.474909c-38.039273-18.955636-58.984727-44.276364-58.984727-71.168 0-31.325091 28.555636-60.334545 78.312727-79.581091a203.810909 203.810909 0 0 1-57.018182-69.073455 201.064727 201.064727 0 0 1 37.690182-232.389818 201.309091 201.309091 0 0 1 343.691636 142.347636 198.306909 198.306909 0 0 1-21.329454 90.053818 203.799273 203.799273 0 0 1-57.018182 69.073455c49.768727 19.281455 78.312727 48.290909 78.312727 79.581091 0 26.88-20.945455 52.154182-58.961454 71.168a326.016 326.016 0 0 1-142.370909 29.463273z m-88.098909-321.024a21.422545 21.422545 0 0 0-19.781819 29.835636 115.2 115.2 0 0 0 25.041455 37.236364 117.085091 117.085091 0 0 0 190.685091-37.236364 21.387636 21.387636 0 0 0-11.392-28.125091 21.469091 21.469091 0 0 0-28.078546 11.392 74.472727 74.472727 0 0 1-39.470545 39.563636 74.728727 74.728727 0 0 1-57.728 0 74.042182 74.042182 0 0 1-39.482182-39.563636 21.480727 21.480727 0 0 0-19.793454-13.102545z" fill="currentColor" p-id="1470"></path></svg>
